<?xml version="1.0" encoding="UTF-8"?>
<svg width="24px" height="25px" viewBox="0 0 24 25" version="1.1" xmlns="http://www.w3.org/2000/svg" xmlns:xlink="http://www.w3.org/1999/xlink">
    <title>返回顶部 </title>
    <g id="页面-1" stroke="none" stroke-width="1" fill="none" fill-rule="evenodd">
        <g id="官网1920" transform="translate(-1489.000000, -5703.000000)" fill-rule="nonzero">
            <g id="编组-2备份" transform="translate(259.000000, 5306.000000)">
                <g id="编组-20" transform="translate(80.000000, 359.500000)">
                    <g id="编组-6备份-2" transform="translate(1140.000000, 30.000000)">
                        <g id="返回顶部-" transform="translate(10.000000, 8.000000)">
                            <rect id="矩形" fill="#000000" opacity="0" x="0" y="0" width="24" height="24"></rect>
                            <path d="M17.64225,10.1030391 C17.7459141,3.29472656 12.1971094,0.210234375 11.8246406,0.009609375 L11.8246406,0 L11.8140937,0.0048046875 L11.8044844,0 L11.8044844,0.009609375 C11.4310312,0.210234375 5.88128906,3.29472656 5.98591406,10.1030391 C4.85599219,10.8403125 3.67232812,12.1507266 3.86048437,14.4172734 C4.04864062,16.6828828 6.22783594,18.1852734 7.06207031,18.1036875 C7.89632812,18.0220781 7.65344531,17.3932969 7.65344531,17.3932969 L7.93952344,16.2191953 C7.93952344,16.2191953 9.16928906,18.1075312 9.56383594,18.1065703 C9.91807031,18.0777422 11.6028984,18.1036875 11.8044609,18.1065703 L11.8236797,18.1065703 C12.0252891,18.1036875 13.7100703,18.0777422 14.0643047,18.1065703 C14.4579141,18.1065703 15.6886406,16.2191953 15.6886406,16.2191953 L15.9737578,17.3932734 C15.9737578,17.3932734 15.7318359,18.0221016 16.5660703,18.1036641 C17.4003281,18.1852734 19.5795234,16.6828828 19.7676797,14.4172734 C19.9558359,12.1516875 18.7721719,10.8403125 17.64225,10.1030391 L17.64225,10.1030391 Z M11.8140703,10.0031953 C11.6556797,10.0003125 9.59264062,9.92446875 9.4025625,7.49088281 C9.47170312,5.17727344 11.6518594,4.97280469 11.8140703,4.96127344 C11.9772891,4.97280469 14.1564844,5.17727344 14.2256016,7.49088281 C14.0355234,9.92446875 11.9715234,10.0003359 11.8140703,10.0031953 L11.8140703,10.0031953 Z M10.594875,21.7343906 C10.594875,22.0118438 10.3740938,22.2355313 10.1024062,22.2355313 C9.82813483,22.2334287 9.607355,22.0096498 9.6089445,21.735375 L9.6089445,19.2595312 C9.6089445,18.9830391 9.82975781,18.7583906 10.1024063,18.7583906 C10.3740703,18.7583906 10.594875,18.9830391 10.594875,19.2595312 L10.594875,21.7353516 L10.594875,21.7343906 Z M12.4073756,23.0755313 C12.4089523,23.3535028 12.1851789,23.5802752 11.9072109,23.5823906 C11.6292429,23.5802752 11.4054696,23.3535028 11.4070463,23.0755312 L11.4070463,19.3939219 C11.4070463,19.1136094 11.6307187,18.8860781 11.90625,18.8860781 C12.1827187,18.8860781 12.4073437,19.1136094 12.4073437,19.3939219 L12.4073437,23.0755313 L12.4073756,23.0755313 Z M14.074875,21.1526484 C14.074875,21.4291172 13.8540937,21.6528047 13.5814453,21.6528047 C13.3075503,21.6501758 13.0873526,21.4265514 13.0889445,21.1526484 L13.0889445,19.3862344 C13.0889445,19.1107266 13.3097578,18.8870391 13.5814453,18.8870391 C13.8540703,18.8870391 14.074875,19.1107266 14.074875,19.3862578 L14.074875,21.1526484 L14.074875,21.1526484 Z" id="形状" fill="#222840"></path>
                        </g>
                    </g>
                </g>
            </g>
        </g>
    </g>
</svg>