<?xml version="1.0" encoding="UTF-8"?>
<svg width="160px" height="170px" viewBox="0 0 160 170" version="1.1" xmlns="http://www.w3.org/2000/svg" xmlns:xlink="http://www.w3.org/1999/xlink">
    <title>icon_scenarios</title>
    <defs>
        <rect id="path-1" x="0" y="0" width="142" height="170" rx="6"></rect>
        <linearGradient x1="100%" y1="13.8115393%" x2="-3.63016643e-14%" y2="86.1884607%" id="linearGradient-3">
            <stop stop-color="#1672F0" stop-opacity="0" offset="0%"></stop>
            <stop stop-color="#1672F0" offset="51.6335227%"></stop>
            <stop stop-color="#1672F0" offset="100%"></stop>
        </linearGradient>
        <path d="M20.5768332,1.80283455 L4.37125984,7.50104943 C1.75235518,8.42191049 1.43638451e-15,10.895602 0,13.6716868 L0,50.4590164 C2.21875872e-15,54.0715019 2.92849811,57 6.54098361,57 L46.0077468,57 C47.4461531,57 48.8444508,56.5258599 49.9861968,55.6509719 L62.6070853,45.9799387 C65.3762361,43.858016 67,40.5681041 67,37.0794435 L67,6.57151764 C66.9951618,2.96092072 64.0696105,0.0332054825 60.4590182,0.0256976649 L31.1389824,0.00401856594 C27.5418198,0.00135884055 23.9703277,0.609611667 20.5768332,1.80283455 Z" id="path-4"></path>
        <filter x="-117.7%" y="-115.5%" width="335.5%" height="330.9%" filterUnits="objectBoundingBox" id="filter-6">
            <feGaussianBlur stdDeviation="11.5297938" in="SourceGraphic"></feGaussianBlur>
        </filter>
        <linearGradient x1="50%" y1="100%" x2="50%" y2="-5.44571881e-14%" id="linearGradient-7">
            <stop stop-color="#1571F0" offset="0%"></stop>
            <stop stop-color="#3087FF" stop-opacity="0" offset="100%"></stop>
        </linearGradient>
        <linearGradient x1="-2.51086646e-16%" y1="71.8721198%" x2="100%" y2="71.8721198%" id="linearGradient-8">
            <stop stop-color="#1672F0" offset="0%"></stop>
            <stop stop-color="#1672F0" stop-opacity="0" offset="100%"></stop>
        </linearGradient>
        <path d="M20.5768332,1.80283455 L4.37125984,7.50104943 C1.75235518,8.42191049 1.43638451e-15,10.895602 0,13.6716868 L0,50.4590164 C2.21875872e-15,54.0715019 2.92849811,57 6.54098361,57 L46.0077468,57 C47.4461531,57 48.8444508,56.5258599 49.9861968,55.6509719 L62.6070853,45.9799387 C65.3762361,43.858016 67,40.5681041 67,37.0794435 L67,6.57151764 C66.9951618,2.96092072 64.0696105,0.0332054825 60.4590182,0.0256976649 L31.1389824,0.00401856594 C27.5418198,0.00135884055 23.9703277,0.609611667 20.5768332,1.80283455 Z" id="path-9"></path>
        <filter x="-117.7%" y="-115.5%" width="335.5%" height="330.9%" filterUnits="objectBoundingBox" id="filter-11">
            <feGaussianBlur stdDeviation="11.5297938" in="SourceGraphic"></feGaussianBlur>
        </filter>
    </defs>
    <g id="页面-1" stroke="none" stroke-width="1" fill="none" fill-rule="evenodd">
        <g id="官网1920" transform="translate(-356.000000, -2293.000000)">
            <g id="编组-51备份" transform="translate(340.000000, 2263.000000)">
                <g id="icon_scenarios" transform="translate(16.000000, 30.000000)">
                    <g id="编组-25" transform="translate(18.000000, 0.000000)">
                        <mask id="mask-2" fill="white">
                            <use xlink:href="#path-1"></use>
                        </mask>
                        <g id="矩形备份-185"></g>
                        <path d="M25,40.5 L25,-27 L76,-27 L76,10 M98.5,32 L110,32 C120.49341,32 129,40.5065898 129,51 L129,81 L129,81 L129,141.5 L38.5,141.5" id="形状" stroke="#202842" stroke-dasharray="1" mask="url(#mask-2)"></path>
                    </g>
                    <g id="编组-14" transform="translate(0.000000, 90.000000)">
                        <mask id="mask-5" fill="white">
                            <use xlink:href="#path-4"></use>
                        </mask>
                        <use id="路径-2" fill="url(#linearGradient-3)" xlink:href="#path-4"></use>
                        <rect id="矩形" fill="#1672F0" fill-rule="nonzero" mask="url(#mask-5)" x="3.34906882" y="9.22868296" width="44.12877" height="45"></rect>
                        <rect id="矩形" fill="#60A4FF" fill-rule="nonzero" filter="url(#filter-6)" mask="url(#mask-5)" x="9.99677195" y="17.4926942" width="29.3770524" height="29.9570407" rx="7.33714152"></rect>
                        <polygon id="矩形备份-3" fill="url(#linearGradient-7)" fill-rule="nonzero" mask="url(#mask-5)" points="26.239335 0.706421383 65.6159359 0.721073018 47.4778388 9.22868296 1.89275749 9.22868296"></polygon>
                        <polygon id="矩形备份-4" fill="url(#linearGradient-8)" fill-rule="nonzero" mask="url(#mask-5)" points="65.6159359 0.721073018 65.6082689 42.0264775 47.4778388 55.7137461 47.4778388 9.22868296"></polygon>
                    </g>
                    <g id="编组-14备份-2" transform="translate(61.000000, 76.000000)">
                        <mask id="mask-10" fill="white">
                            <use xlink:href="#path-9"></use>
                        </mask>
                        <use id="路径-2" fill="url(#linearGradient-3)" xlink:href="#path-9"></use>
                        <rect id="矩形" fill="#1672F0" fill-rule="nonzero" mask="url(#mask-10)" x="3.34906882" y="9.22868296" width="44.12877" height="45"></rect>
                        <rect id="矩形" fill="#60A4FF" fill-rule="nonzero" filter="url(#filter-11)" mask="url(#mask-10)" x="9.99677195" y="17.4926942" width="29.3770524" height="29.9570407" rx="7.33714152"></rect>
                        <polygon id="矩形备份-3" fill="url(#linearGradient-7)" fill-rule="nonzero" mask="url(#mask-10)" points="26.239335 0.706421383 65.6159359 0.721073018 47.4778388 9.22868296 1.89275749 9.22868296"></polygon>
                        <polygon id="矩形备份-4" fill="url(#linearGradient-8)" fill-rule="nonzero" mask="url(#mask-10)" points="65.6159359 0.721073018 65.6082689 42.0264775 47.4778388 55.7137461 47.4778388 9.22868296"></polygon>
                    </g>
                    <g id="编组-24备份-2" transform="translate(28.000000, 41.000000)">
                        <path d="M15,30 C23.2842712,30 30,23.2842712 30,15 C30,6.71572875 23.2842712,0 15,0 C6.71572875,0 0,6.71572875 0,15 C0,23.2842712 6.71572875,30 15,30 Z" id="椭圆形" stroke="#202842" stroke-dasharray="1"></path>
                        <g id="城市" transform="translate(5.000000, 5.000000)" fill-rule="nonzero">
                            <rect id="矩形" fill="#000000" opacity="0" x="1" y="0" width="19" height="19"></rect>
                            <g id="编组-38" transform="translate(0.000000, 1.500000)" fill="#202842">
                                <path d="M12,0 C12.2761424,0 12.5,0.223857625 12.5,0.5 L12.5,0.5 L12.5,15 L19.5,15 C19.7761424,15 20,15.2238576 20,15.5 C20,15.7454599 19.8231248,15.9496084 19.5898756,15.9919443 L19.5,16 L0.5,16 C0.223857625,16 0,15.7761424 0,15.5 C0,15.2545401 0.176875161,15.0503916 0.410124368,15.0080557 L0.5,15 L2.5,15 L2.5,0.5 C2.5,0.254540111 2.67687516,0.0503916296 2.91012437,0.00805566941 L3,0 Z M11.5,1 L3.5,1 L3.5,15 L5.5,15 L5.5,11.5 C5.5,11.2545401 5.67687516,11.0503916 5.91012437,11.0080557 L6,11 L9,11 C9.27614237,11 9.5,11.2238576 9.5,11.5 L9.5,11.5 L9.5,15 L11.5,15 L11.5,1 Z M8.5,12 L6.5,12 L6.5,15 L8.5,15 L8.5,12 Z M6.5,6.5 L6.5,8.5 L5.5,8.5 L5.5,6.5 L6.5,6.5 Z M9.5,6.5 L9.5,8.5 L8.5,8.5 L8.5,6.5 L9.5,6.5 Z M6.5,3.5 L6.5,5.5 L5.5,5.5 L5.5,3.5 L6.5,3.5 Z M9.5,3.5 L9.5,5.5 L8.5,5.5 L8.5,3.5 L9.5,3.5 Z" id="形状结合"></path>
                                <path d="M12.1245499,4.51567141 L12.2095291,4.54602031 L18.7095291,7.54602031 C18.9602551,7.66174003 19.0696994,7.95880303 18.9539797,8.20952909 C18.8511177,8.4323967 18.6049722,8.54363425 18.3754501,8.48432859 L18.2904709,8.45397969 L17.5,8.08887942 L17.5,16 L11.5,16 L11.5,4.76148352 L11.551,4.78087942 L11.5909976,4.71224328 C11.7101589,4.54245865 11.9237181,4.46377896 12.1245499,4.51567141 Z M14.5,10.5 L12.5,10.5 L12.5,11.5 L14.5,11.5 C14.7761424,11.5 15,11.2761424 15,11 C15,10.7238576 14.7761424,10.5 14.5,10.5 L14.5,10.5 Z M14.5,8.5 L12.5,8.5 L12.5,9.5 L14.5,9.5 C14.7761424,9.5 15,9.27614237 15,9 C15,8.72385763 14.7761424,8.5 14.5,8.5 L14.5,8.5 Z" id="形状结合"></path>
                            </g>
                        </g>
                    </g>
                    <g id="编组-24" transform="translate(72.000000, 10.000000)">
                        <path d="M22,44 C34.1502645,44 44,34.1502645 44,22 C44,9.8497355 34.1502645,0 22,0 C9.8497355,0 0,9.8497355 0,22 C0,34.1502645 9.8497355,44 22,44 Z" id="椭圆形" stroke="#202842" stroke-dasharray="1"></path>
                        <g id="编组-40" transform="translate(19.000000, 22.001319)" stroke="#202842">
                            <path d="M0,2 L0.00633321039,1.91091216 C0.157801853,0.847682928 3.00717212,0 6.5,0 C10.0898509,0 13,0.8954305 13,2 L13,2 L13,10 C13,11.1045695 10.0898509,12 6.5,12 C2.91014913,12 0,11.1045695 0,10 L0,10 L0,2 Z" id="形状结合"></path>
                            <path d="M0,6 C0,7.1045695 2.91014913,8 6.5,8 C10.0898509,8 13,7.1045695 13,6" id="路径"></path>
                            <path d="M0,2 C0,3.1045695 2.91014913,4 6.5,4 C10.0898509,4 13,3.1045695 13,2" id="路径备份"></path>
                        </g>
                        <path d="M17.4993983,31.4002915 L17.5,32.001319 L17.5033983,32.0632915 L17.2289539,32.2355293 L17.0113983,31.8882915 L17.4993983,31.4002915 Z M31.5253983,17.3742915 L34.1899158,21.637144 L32.458762,22.719096 C32.1688345,21.7076057 30.5069374,20.9890259 28.2245998,20.6762042 L31.5253983,17.3742915 Z" id="形状结合" fill="#202842" fill-rule="nonzero"></path>
                        <path d="M22.8890873,8.33273811 C23.0843494,8.13747596 23.4009319,8.13747596 23.5961941,8.33273811 L23.5961941,8.33273811 L32.0814755,16.8180195 C32.2767376,17.0132816 32.2767376,17.3298641 32.0814755,17.5251263 L32.0814755,17.5251263 L28.8345585,20.7721101 C28.4410879,20.7018643 28.0248035,20.644709 27.5902317,20.601324 L31.021,17.171 L23.242,9.393 L9.1,23.535 L16.879,31.314 L17.4993983,30.6922915 L17.5,32.001319 L17.5053983,32.1002915 L17.232233,32.3743687 C17.0586667,32.547935 16.7892423,32.5672202 16.5943742,32.4322241 L16.5251263,32.3743687 L8.03984489,23.8890873 C7.84458275,23.6938252 7.84458275,23.3772427 8.03984489,23.1819805 L8.03984489,23.1819805 Z" id="形状结合" fill="#202842" fill-rule="nonzero"></path>
                    </g>
                    <circle id="椭圆形备份-14" fill="#202842" cx="147" cy="81" r="4"></circle>
                    <circle id="椭圆形备份-15" fill="#202842" cx="147" cy="107" r="2"></circle>
                    <line x1="43" y1="72" x2="43" y2="90" id="路径-4" stroke="#202842"></line>
                    <line x1="147" y1="83" x2="147" y2="106.5" id="路径-4备份-3" stroke="#202842"></line>
                    <line x1="94" y1="54" x2="94" y2="76" id="路径-4备份-2" stroke="#202842"></line>
                </g>
            </g>
        </g>
    </g>
</svg>