<?xml version="1.0" encoding="UTF-8"?>
<svg width="160px" height="170px" viewBox="0 0 160 170" version="1.1" xmlns="http://www.w3.org/2000/svg" xmlns:xlink="http://www.w3.org/1999/xlink">
    <title>icon_data isolation</title>
    <defs>
        <rect id="path-1" x="0" y="0" width="142" height="170" rx="6"></rect>
        <linearGradient x1="100%" y1="14.1107253%" x2="-3.63016643e-14%" y2="85.8892747%" id="linearGradient-3">
            <stop stop-color="#1672F0" stop-opacity="0" offset="0%"></stop>
            <stop stop-color="#1672F0" offset="51.6335227%"></stop>
            <stop stop-color="#1672F0" offset="100%"></stop>
        </linearGradient>
        <path d="M22.1542084,1.91471567 L4.68658079,8.03125301 C1.87947205,9.01420192 1.41211863e-15,11.6636926 0,14.6379232 L0,54 C4.73447626e-16,57.8659932 3.13400675,61 7,61 L49.4588473,61 C50.9933943,61 52.4854241,60.4957422 53.7053494,59.5648199 L67.2797179,49.2062485 C70.2544541,46.9362336 72,43.408485 72,39.6665573 L72,7.03267678 C71.9948438,3.16869626 68.8639776,0.0355238476 65.0000019,0.0275224493 L33.4158513,0.00426601023 C29.5810943,0.00144235373 25.7734915,0.647372401 22.1542084,1.91471567 Z" id="path-4"></path>
        <filter x="-117.3%" y="-115.5%" width="334.5%" height="330.9%" filterUnits="objectBoundingBox" id="filter-6">
            <feGaussianBlur stdDeviation="12.3389021" in="SourceGraphic"></feGaussianBlur>
        </filter>
        <linearGradient x1="50%" y1="100%" x2="50%" y2="-5.44571881e-14%" id="linearGradient-7">
            <stop stop-color="#1571F0" offset="0%"></stop>
            <stop stop-color="#3087FF" stop-opacity="0" offset="100%"></stop>
        </linearGradient>
        <linearGradient x1="-2.51086646e-16%" y1="71.8721198%" x2="100%" y2="71.8721198%" id="linearGradient-8">
            <stop stop-color="#1672F0" offset="0%"></stop>
            <stop stop-color="#1672F0" stop-opacity="0" offset="100%"></stop>
        </linearGradient>
        <linearGradient x1="100%" y1="14.5429363%" x2="-3.63016643e-14%" y2="85.4570637%" id="linearGradient-9">
            <stop stop-color="#1672F0" stop-opacity="0" offset="0%"></stop>
            <stop stop-color="#1672F0" offset="51.6335227%"></stop>
            <stop stop-color="#1672F0" offset="100%"></stop>
        </linearGradient>
        <path d="M12.018209,0.891077824 L4.69903933,3.43850962 C1.88550584,4.41775795 1.41152516e-15,7.07045251 0,10.0495292 L0,27 C1.56449537e-15,29.7614237 2.23857625,32 5,32 L24.9974885,32 C26.5250407,32 28.010663,31.5003227 29.2277276,30.5771926 L35.2302391,26.0243538 C36.9750849,24.7009075 38,22.6371377 38,20.4471612 L38,5.01714192 C37.9963392,2.25714715 35.7599927,0.0191632536 33.0000013,0.0134824895 L17.2892578,0.0019840263 C15.4948158,0.000670700418 13.7129368,0.301229006 12.018209,0.891077824 Z" id="path-10"></path>
        <filter x="-126.0%" y="-124.9%" width="352.1%" height="349.7%" filterUnits="objectBoundingBox" id="filter-12">
            <feGaussianBlur stdDeviation="7" in="SourceGraphic"></feGaussianBlur>
        </filter>
        <linearGradient x1="50%" y1="100%" x2="50%" y2="-5.44571881e-14%" id="linearGradient-13">
            <stop stop-color="#1571F0" offset="0%"></stop>
            <stop stop-color="#3087FF" stop-opacity="0" offset="100%"></stop>
        </linearGradient>
        <linearGradient x1="-2.51086646e-16%" y1="71.8721198%" x2="100%" y2="71.8721198%" id="linearGradient-14">
            <stop stop-color="#1672F0" offset="0%"></stop>
            <stop stop-color="#1672F0" stop-opacity="0" offset="100%"></stop>
        </linearGradient>
        <path d="M12.018209,0.891077824 L4.69903933,3.43850962 C1.88550584,4.41775795 1.41152516e-15,7.07045251 0,10.0495292 L0,27 C1.56449537e-15,29.7614237 2.23857625,32 5,32 L24.9974885,32 C26.5250407,32 28.010663,31.5003227 29.2277276,30.5771926 L35.2302391,26.0243538 C36.9750849,24.7009075 38,22.6371377 38,20.4471612 L38,5.01714192 C37.9963392,2.25714715 35.7599927,0.0191632536 33.0000013,0.0134824895 L17.2892578,0.0019840263 C15.4948158,0.000670700418 13.7129368,0.301229006 12.018209,0.891077824 Z" id="path-15"></path>
        <filter x="-126.0%" y="-124.9%" width="352.1%" height="349.7%" filterUnits="objectBoundingBox" id="filter-17">
            <feGaussianBlur stdDeviation="7" in="SourceGraphic"></feGaussianBlur>
        </filter>
    </defs>
    <g id="页面-1" stroke="none" stroke-width="1" fill="none" fill-rule="evenodd">
        <g id="官网1920" transform="translate(-996.000000, -2293.000000)">
            <g id="编组-49备份" transform="translate(980.000000, 2263.000000)">
                <g id="icon_data-isolation" transform="translate(16.000000, 30.000000)">
                    <g id="编组-25" transform="translate(18.000000, 0.000000)">
                        <mask id="mask-2" fill="white">
                            <use xlink:href="#path-1"></use>
                        </mask>
                        <g id="矩形备份-185"></g>
                        <path d="M71.8823529,130 L53.5,130 M-5,130 L-5,12 L71.8823529,12 C104.467153,12 130.882353,38.4151998 130.882353,71 C130.882353,89.3934873 122.465458,105.821103 109.273145,116.64137" id="形状" stroke="#202842" stroke-dasharray="1" mask="url(#mask-2)"></path>
                        <line x1="131" y1="71" x2="98" y2="71" id="路径-7" stroke="#202842" stroke-dasharray="1" mask="url(#mask-2)"></line>
                        <line x1="54" y1="71" x2="15" y2="71" id="路径-9" stroke="#202842" stroke-dasharray="1" mask="url(#mask-2)"></line>
                        <line x1="15" y1="58" x2="15" y2="86" id="路径-6" stroke="#202842" mask="url(#mask-2)"></line>
                        <path d="M15,73 C16.1045695,73 17,72.1045695 17,71 C17,69.8954305 16.1045695,69 15,69 C13.8954305,69 13,69.8954305 13,71 C13,72.1045695 13.8954305,73 15,73 Z" id="椭圆形备份-5" fill="#202842" mask="url(#mask-2)"></path>
                        <path d="M131,73 C132.104569,73 133,72.1045695 133,71 C133,69.8954305 132.104569,69 131,69 C129.895431,69 129,69.8954305 129,71 C129,72.1045695 129.895431,73 131,73 Z" id="椭圆形备份-6" fill="#202842" mask="url(#mask-2)"></path>
                    </g>
                    <g id="编组-24" transform="translate(72.000000, 50.000000)">
                        <path d="M22,44 C34.1502645,44 44,34.1502645 44,22 C44,9.8497355 34.1502645,0 22,0 C9.8497355,0 0,9.8497355 0,22 C0,34.1502645 9.8497355,44 22,44 Z" id="椭圆形" stroke="#202842" stroke-dasharray="1"></path>
                        <g id="节点丰富" transform="translate(7.000000, 7.000000)">
                            <rect id="矩形" fill="#000000" fill-rule="nonzero" opacity="0" x="0" y="0" width="30" height="30"></rect>
                            <g id="编组-37" transform="translate(2.500000, 1.000000)">
                                <path d="M12.5,1.42264973 L23.3923048,7.71132487 L23.3923048,20.2886751 L12.5,26.5773503 L1.60769515,20.2886751 L1.60769515,7.71132487 L12.5,1.42264973 Z M11.9996952,14.8606497 L3.05769515,19.9706497 L11.9996952,25.1336497 L11.9996952,14.8606497 Z M12.9996952,14.8606497 L12.9996952,25.1336497 L21.9416952,19.9706497 L12.9996952,14.8606497 Z M2.60669515,8.92264973 L2.60669515,19.0766497 L11.4916952,13.9996497 L2.60669515,8.92264973 Z M22.3916952,8.92264973 L13.5066952,13.9996497 L22.3916952,19.0766497 L22.3916952,8.92264973 Z M11.9996952,2.86564973 L3.05769515,8.02864973 L11.9996952,13.1386497 L11.9996952,2.86564973 Z M12.9996952,2.86564973 L12.9996952,13.1386497 L21.9416952,8.02864973 L12.9996952,2.86564973 Z" id="形状结合" fill="#212A45" fill-rule="nonzero"></path>
                                <circle id="椭圆形" stroke="#1672F0" fill="#202842" cx="12.5" cy="14" r="2"></circle>
                                <circle id="椭圆形备份-19" stroke="#1672F0" fill="#202842" cx="12.5" cy="2" r="2"></circle>
                                <path d="M2,10 C3.1045695,10 4,9.1045695 4,8 C4,6.8954305 3.1045695,6 2,6 C0.8954305,6 0,6.8954305 0,8 C0,9.1045695 0.8954305,10 2,10 Z" id="椭圆形备份-21" stroke="#1672F0" fill="#202842"></path>
                                <path d="M23,10 C24.1045695,10 25,9.1045695 25,8 C25,6.8954305 24.1045695,6 23,6 C21.8954305,6 21,6.8954305 21,8 C21,9.1045695 21.8954305,10 23,10 Z" id="椭圆形备份-23" stroke="#1672F0" fill="#202842"></path>
                                <path d="M2,22 C3.1045695,22 4,21.1045695 4,20 C4,18.8954305 3.1045695,18 2,18 C0.8954305,18 0,18.8954305 0,20 C0,21.1045695 0.8954305,22 2,22 Z" id="椭圆形备份-22" stroke="#1672F0" fill="#202842"></path>
                                <path d="M23,22 C24.1045695,22 25,21.1045695 25,20 C25,18.8954305 24.1045695,18 23,18 C21.8954305,18 21,18.8954305 21,20 C21,21.1045695 21.8954305,22 23,22 Z" id="椭圆形备份-24" stroke="#1672F0" fill="#202842"></path>
                                <circle id="椭圆形备份-20" stroke="#1672F0" fill="#202842" cx="12.5" cy="26" r="2"></circle>
                            </g>
                        </g>
                    </g>
                    <g id="编组-14" transform="translate(0.000000, 86.000000)">
                        <mask id="mask-5" fill="white">
                            <use xlink:href="#path-4"></use>
                        </mask>
                        <use id="路径-2" fill="url(#linearGradient-3)" xlink:href="#path-4"></use>
                        <rect id="矩形" fill="#1672F0" fill-rule="nonzero" mask="url(#mask-5)" x="3.59899933" y="9.87630983" width="47.4219618" height="48.1578947"></rect>
                        <rect id="矩形" fill="#60A4FF" fill-rule="nonzero" filter="url(#filter-6)" mask="url(#mask-5)" x="10.7427997" y="18.7202517" width="31.5693697" height="32.0592892" rx="7.85202864"></rect>
                        <polygon id="矩形备份-3" fill="url(#linearGradient-7)" fill-rule="nonzero" mask="url(#mask-5)" points="28.1974943 0.755994813 70.5126476 0.771674633 51.0209611 9.87630983 2.03400805 9.87630983"></polygon>
                        <polygon id="矩形备份-4" fill="url(#linearGradient-8)" fill-rule="nonzero" mask="url(#mask-5)" points="70.5126476 0.771674633 70.5044083 44.975704 51.0209611 59.6234827 51.0209611 9.87630983"></polygon>
                    </g>
                    <g id="编组-14" transform="translate(14.000000, 26.000000)">
                        <mask id="mask-11" fill="white">
                            <use xlink:href="#path-10"></use>
                        </mask>
                        <use id="路径-2" fill="url(#linearGradient-9)" xlink:href="#path-10"></use>
                        <rect id="矩形" fill="#1672F0" fill-rule="nonzero" mask="url(#mask-11)" x="3" y="6" width="24" height="24"></rect>
                        <rect id="矩形" fill="#60A4FF" fill-rule="nonzero" filter="url(#filter-12)" mask="url(#mask-11)" x="5.66981096" y="10.8204599" width="16.6616118" height="16.8179878" rx="7.85202864"></rect>
                        <polygon id="矩形备份-3" fill="url(#linearGradient-13)" fill-rule="nonzero" mask="url(#mask-11)" points="15.5275917 1.39658744 37 1.5 27 6 3 6"></polygon>
                        <polygon id="矩形备份-4" fill="url(#linearGradient-14)" fill-rule="nonzero" mask="url(#mask-11)" points="37 1.5 37 22.5 27 30 27 6"></polygon>
                    </g>
                    <g id="编组-14备份" transform="translate(89.000000, 111.000000)">
                        <mask id="mask-16" fill="white">
                            <use xlink:href="#path-15"></use>
                        </mask>
                        <use id="路径-2" fill="url(#linearGradient-9)" xlink:href="#path-15"></use>
                        <rect id="矩形" fill="#1672F0" fill-rule="nonzero" mask="url(#mask-16)" x="3" y="6" width="24" height="24"></rect>
                        <rect id="矩形" fill="#60A4FF" fill-rule="nonzero" filter="url(#filter-17)" mask="url(#mask-16)" x="5.66981096" y="10.8204599" width="16.6616118" height="16.8179878" rx="7.85202864"></rect>
                        <polygon id="矩形备份-3" fill="url(#linearGradient-13)" fill-rule="nonzero" mask="url(#mask-16)" points="15.5275917 1.39658744 37 1.5 27 6 3 6"></polygon>
                        <polygon id="矩形备份-4" fill="url(#linearGradient-14)" fill-rule="nonzero" mask="url(#mask-16)" points="37 1.5 37 22.5 27 30 27 6"></polygon>
                    </g>
                </g>
            </g>
        </g>
    </g>
</svg>