<?xml version="1.0" encoding="UTF-8"?>
<svg width="160px" height="170px" viewBox="0 0 160 170" version="1.1" xmlns="http://www.w3.org/2000/svg" xmlns:xlink="http://www.w3.org/1999/xlink">
    <title>icon_privacy</title>
    <defs>
        <rect id="path-1" x="0" y="0" width="142" height="170" rx="6"></rect>
        <linearGradient x1="100%" y1="13.8115393%" x2="-3.63016643e-14%" y2="86.1884607%" id="linearGradient-3">
            <stop stop-color="#1672F0" stop-opacity="0" offset="0%"></stop>
            <stop stop-color="#1672F0" offset="51.6335227%"></stop>
            <stop stop-color="#1672F0" offset="100%"></stop>
        </linearGradient>
        <path d="M20.2170287,1.92934926 L4.67801492,7.393188 C1.87532748,8.37867089 3.18888364e-15,11.0259548 0,13.9968525 L0,50 C1.36162605e-15,53.8659932 3.13400675,57 7,57 L45.8521017,57 C47.3914489,57 48.8878727,56.4925869 50.1097412,55.5563033 L62.2988106,46.216161 C65.2622878,43.9453314 67,40.4245485 67,36.6910697 L67,7.03053404 C66.9948223,3.1665619 63.8639692,0.0333929524 60.0000019,0.0253582704 L31.5203814,0.00430057057 C27.6707863,0.00145419778 23.8486631,0.652391434 20.2170287,1.92934926 Z" id="path-4"></path>
        <filter x="-126.0%" y="-123.6%" width="352.0%" height="347.1%" filterUnits="objectBoundingBox" id="filter-6">
            <feGaussianBlur stdDeviation="12.3389021" in="SourceGraphic"></feGaussianBlur>
        </filter>
        <linearGradient x1="50%" y1="100%" x2="50%" y2="-5.44571881e-14%" id="linearGradient-7">
            <stop stop-color="#1571F0" offset="0%"></stop>
            <stop stop-color="#3087FF" stop-opacity="0" offset="100%"></stop>
        </linearGradient>
        <linearGradient x1="-2.51086646e-16%" y1="71.8721198%" x2="100%" y2="71.8721198%" id="linearGradient-8">
            <stop stop-color="#1672F0" offset="0%"></stop>
            <stop stop-color="#1672F0" stop-opacity="0" offset="100%"></stop>
        </linearGradient>
        <path d="M20.2170287,1.92934926 L4.67801492,7.393188 C1.87532748,8.37867089 3.18888364e-15,11.0259548 0,13.9968525 L0,50 C1.36162605e-15,53.8659932 3.13400675,57 7,57 L45.8521017,57 C47.3914489,57 48.8878727,56.4925869 50.1097412,55.5563033 L62.2988106,46.216161 C65.2622878,43.9453314 67,40.4245485 67,36.6910697 L67,7.03053404 C66.9948223,3.1665619 63.8639692,0.0333929524 60.0000019,0.0253582704 L31.5203814,0.00430057057 C27.6707863,0.00145419778 23.8486631,0.652391434 20.2170287,1.92934926 Z" id="path-9"></path>
        <filter x="-126.0%" y="-123.6%" width="352.0%" height="347.1%" filterUnits="objectBoundingBox" id="filter-11">
            <feGaussianBlur stdDeviation="12.3389021" in="SourceGraphic"></feGaussianBlur>
        </filter>
        <path d="M20.2170287,1.92934926 L4.67801492,7.393188 C1.87532748,8.37867089 3.18888364e-15,11.0259548 0,13.9968525 L0,50 C1.36162605e-15,53.8659932 3.13400675,57 7,57 L45.8521017,57 C47.3914489,57 48.8878727,56.4925869 50.1097412,55.5563033 L62.2988106,46.216161 C65.2622878,43.9453314 67,40.4245485 67,36.6910697 L67,7.03053404 C66.9948223,3.1665619 63.8639692,0.0333929524 60.0000019,0.0253582704 L31.5203814,0.00430057057 C27.6707863,0.00145419778 23.8486631,0.652391434 20.2170287,1.92934926 Z" id="path-12"></path>
        <filter x="-126.0%" y="-123.6%" width="352.0%" height="347.1%" filterUnits="objectBoundingBox" id="filter-14">
            <feGaussianBlur stdDeviation="12.3389021" in="SourceGraphic"></feGaussianBlur>
        </filter>
    </defs>
    <g id="页面-1" stroke="none" stroke-width="1" fill="none" fill-rule="evenodd">
        <g id="官网1920" transform="translate(-996.000000, -2023.000000)">
            <g id="编组-12备份" transform="translate(980.000000, 1993.000000)">
                <g id="icon_privacy" transform="translate(16.000000, 30.000000)">
                    <g id="编组-25" transform="translate(18.000000, 0.000000)">
                        <mask id="mask-2" fill="white">
                            <use xlink:href="#path-1"></use>
                        </mask>
                        <g id="矩形备份-185"></g>
                        <path d="M130,160 C130,144.543494 130,125.286 130,102.227519 C130,92.1516792 130,82.0758396 130,72 C130,64.1739613 128.422807,56.7162957 125.568935,49.9275182 M99.043859,21.2842917 C91.2375024,17.2674349 82.3835451,15 73,15 L55,15" id="形状" stroke="#202842" mask="url(#mask-2)"></path>
                        <g id="编组-24" mask="url(#mask-2)">
                            <g transform="translate(96.000000, 12.000000)">
                                <path d="M20,40 C31.045695,40 40,31.045695 40,20 C40,8.954305 31.045695,0 20,0 C8.954305,0 0,8.954305 0,20 C0,31.045695 8.954305,40 20,40 Z" id="椭圆形" stroke="#202842" stroke-width="1" fill="none" stroke-dasharray="1"></path>
                                <rect id="矩形" stroke="none" fill="#000000" fill-rule="nonzero" opacity="0" x="8" y="7" width="26" height="26"></rect>
                                <g id="编组-36" stroke="none" stroke-width="1" fill="none" fill-rule="evenodd" transform="translate(10.500000, 8.500000)">
                                    <path d="M18,0 L18,7.5 L17,7.5 L17,1 L1,1 L1,21 L8,21 L8,22 L0,22 L0,0 L18,0 Z M9,11.5 L9,12.5 L3,12.5 L3,11.5 L9,11.5 Z M13,7.5 L13,8.5 L3,8.5 L3,7.5 L13,7.5 Z M13,3.5 L13,4.5 L3,4.5 L3,3.5 L13,3.5 Z" id="形状结合" fill="#202842" fill-rule="nonzero"></path>
                                    <path d="M16.5,9.5 C18.1568542,9.5 19.5,10.8431458 19.5,12.5 L19.5,15.5 L21.5,15.5 C22.0522847,15.5 22.5,15.9477153 22.5,16.5 L22.5,21.5 C22.5,22.0522847 22.0522847,22.5 21.5,22.5 L11.5,22.5 C10.9477153,22.5 10.5,22.0522847 10.5,21.5 L10.5,16.5 C10.5,15.9477153 10.9477153,15.5 11.5,15.5 L13.5,15.5 L13.5,12.5 C13.5,10.8431458 14.8431458,9.5 16.5,9.5 Z M16.5,18.5 C15.9477153,18.5 15.5,18.9477153 15.5,19.5 C15.5,20.0522847 15.9477153,20.5 16.5,20.5 C17.0522847,20.5 17.5,20.0522847 17.5,19.5 C17.5,18.9477153 17.0522847,18.5 16.5,18.5 Z M16.5,10.5 C15.4456382,10.5 14.5818349,11.3158778 14.5054857,12.3507377 L14.5,12.5 L14.5,15.5 L18.5,15.5 L18.5,12.5 C18.5,11.3954305 17.6045695,10.5 16.5,10.5 Z" id="形状结合" fill="#202842" fill-rule="nonzero"></path>
                                </g>
                            </g>
                        </g>
                        <path d="M52.5,15 C72.6583934,15 89,31.3416066 89,51.5 L89,83.5 L89,83.5 L115.5,83.5 L115.5,144 L-9.5,144 L-9.5,83.5 L16,83.5 L16,51.5 C16,31.3416066 32.3416066,15 52.5,15 Z" id="路径-10" stroke="#202842" stroke-dasharray="1" mask="url(#mask-2)"></path>
                    </g>
                    <g id="编组-14" transform="translate(0.000000, 89.918519)">
                        <mask id="mask-5" fill="white">
                            <use xlink:href="#path-4"></use>
                        </mask>
                        <use id="路径-2" fill="url(#linearGradient-3)" xlink:href="#path-4"></use>
                        <rect id="矩形" fill="#1672F0" fill-rule="nonzero" mask="url(#mask-5)" x="3.34906882" y="9.22868296" width="44.12877" height="45"></rect>
                        <rect id="矩形" fill="#60A4FF" fill-rule="nonzero" filter="url(#filter-6)" mask="url(#mask-5)" x="9.99677195" y="17.4926942" width="29.3770524" height="29.9570407" rx="7.85202864"></rect>
                        <polygon id="矩形备份-3" fill="url(#linearGradient-7)" fill-rule="nonzero" mask="url(#mask-5)" points="26.239335 0.706421383 65.6159359 0.721073018 47.4778388 9.22868296 1.89275749 9.22868296"></polygon>
                        <polygon id="矩形备份-4" fill="url(#linearGradient-8)" fill-rule="nonzero" mask="url(#mask-5)" points="65.6159359 0.721073018 65.6082689 42.0264775 47.4778388 55.7137461 47.4778388 9.22868296"></polygon>
                    </g>
                    <g id="编组-14" transform="translate(29.000000, 28.918519)">
                        <mask id="mask-10" fill="white">
                            <use xlink:href="#path-9"></use>
                        </mask>
                        <use id="路径-2" fill="url(#linearGradient-3)" xlink:href="#path-9"></use>
                        <rect id="矩形" fill="#1672F0" fill-rule="nonzero" mask="url(#mask-10)" x="3.34906882" y="9.22868296" width="44.12877" height="45"></rect>
                        <rect id="矩形" fill="#60A4FF" fill-rule="nonzero" filter="url(#filter-11)" mask="url(#mask-10)" x="9.99677195" y="17.4926942" width="29.3770524" height="29.9570407" rx="7.85202864"></rect>
                        <polygon id="矩形备份-3" fill="url(#linearGradient-7)" fill-rule="nonzero" mask="url(#mask-10)" points="26.239335 0.706421383 65.6159359 0.721073018 47.4778388 9.22868296 1.89275749 9.22868296"></polygon>
                        <polygon id="矩形备份-4" fill="url(#linearGradient-8)" fill-rule="nonzero" mask="url(#mask-10)" points="65.6159359 0.721073018 65.6082689 42.0264775 47.4778388 55.7137461 47.4778388 9.22868296"></polygon>
                    </g>
                    <g id="编组-14" transform="translate(60.081481, 89.918519)">
                        <mask id="mask-13" fill="white">
                            <use xlink:href="#path-12"></use>
                        </mask>
                        <use id="路径-2" fill="url(#linearGradient-3)" xlink:href="#path-12"></use>
                        <rect id="矩形" fill="#1672F0" fill-rule="nonzero" mask="url(#mask-13)" x="3.34906882" y="9.22868296" width="44.12877" height="45"></rect>
                        <rect id="矩形" fill="#60A4FF" fill-rule="nonzero" filter="url(#filter-14)" mask="url(#mask-13)" x="9.99677195" y="17.4926942" width="29.3770524" height="29.9570407" rx="7.85202864"></rect>
                        <polygon id="矩形备份-3" fill="url(#linearGradient-7)" fill-rule="nonzero" mask="url(#mask-13)" points="26.239335 0.706421383 65.6159359 0.721073018 47.4778388 9.22868296 1.89275749 9.22868296"></polygon>
                        <polygon id="矩形备份-4" fill="url(#linearGradient-8)" fill-rule="nonzero" mask="url(#mask-13)" points="65.6159359 0.721073018 65.6082689 42.0264775 47.4778388 55.7137461 47.4778388 9.22868296"></polygon>
                    </g>
                </g>
            </g>
        </g>
    </g>
</svg>