<?xml version="1.0" encoding="UTF-8"?>
<svg width="161px" height="170px" viewBox="0 0 161 170" version="1.1" xmlns="http://www.w3.org/2000/svg" xmlns:xlink="http://www.w3.org/1999/xlink">
    <title>icon_user owned</title>
    <defs>
        <rect id="path-1" x="0" y="0" width="142" height="170" rx="6"></rect>
        <linearGradient x1="18.3705966%" y1="62.3133952%" x2="80.6701199%" y2="31.5107442%" id="linearGradient-3">
            <stop stop-color="#1672F0" offset="0%"></stop>
            <stop stop-color="#1672F0" stop-opacity="0.0526665809" offset="86.1663506%"></stop>
            <stop stop-color="#1672F0" stop-opacity="0" offset="100%"></stop>
        </linearGradient>
        <radialGradient cx="21.7204443%" cy="50%" fx="21.7204443%" fy="50%" r="109.003654%" gradientTransform="translate(0.217204,0.500000),scale(1.000000,0.961538),rotate(66.645052),scale(1.000000,0.580938),translate(-0.217204,-0.500000)" id="radialGradient-4">
            <stop stop-color="#2176E9" stop-opacity="0.732872596" offset="0%"></stop>
            <stop stop-color="#3385F6" stop-opacity="0" offset="72.9828933%"></stop>
            <stop stop-color="#3385F6" stop-opacity="0" offset="100%"></stop>
        </radialGradient>
        <path d="M26,0 C30.7290724,0 43.3469388,0 52.5306122,0 C62.1138887,0 65.2857143,7.13680638 65.2857143,11.2156863 C65.2857143,15.9598614 62.8183534,18.9367278 59.1632653,21.4117647 C71.2692667,24.1876437 76,30.0784314 76,37.7254902 L76,42.8235294 L52.6875981,52 C47.8210361,38.4052288 41.3061224,29.3986928 33.1428571,24.9803922 C36.7142857,22.4313725 39.7755102,18.9021384 39.7755102,13.7647059 C39.7755102,6.16266874 33.6530612,0 26,0 Z" id="path-5"></path>
        <linearGradient x1="50%" y1="100%" x2="50%" y2="-5.44571881e-14%" id="linearGradient-6">
            <stop stop-color="#1571F0" offset="0%"></stop>
            <stop stop-color="#3087FF" stop-opacity="0" offset="100%"></stop>
        </linearGradient>
        <linearGradient x1="100%" y1="13.8115393%" x2="-3.63016643e-14%" y2="86.1884607%" id="linearGradient-7">
            <stop stop-color="#1672F0" stop-opacity="0" offset="0%"></stop>
            <stop stop-color="#1672F0" offset="51.6335227%"></stop>
            <stop stop-color="#1672F0" offset="100%"></stop>
        </linearGradient>
        <path d="M20.2170287,1.92934926 L4.67801492,7.393188 C1.87532748,8.37867089 3.18888364e-15,11.0259548 0,13.9968525 L0,50 C1.36162605e-15,53.8659932 3.13400675,57 7,57 L45.8521017,57 C47.3914489,57 48.8878727,56.4925869 50.1097412,55.5563033 L62.2988106,46.216161 C65.2622878,43.9453314 67,40.4245485 67,36.6910697 L67,7.03053404 C66.9948223,3.1665619 63.8639692,0.0333929524 60.0000019,0.0253582704 L31.5203814,0.00430057057 C27.6707863,0.00145419778 23.8486631,0.652391434 20.2170287,1.92934926 Z" id="path-8"></path>
        <filter x="-126.0%" y="-123.6%" width="352.0%" height="347.1%" filterUnits="objectBoundingBox" id="filter-10">
            <feGaussianBlur stdDeviation="12.3389021" in="SourceGraphic"></feGaussianBlur>
        </filter>
        <linearGradient x1="50%" y1="100%" x2="50%" y2="-5.44571881e-14%" id="linearGradient-11">
            <stop stop-color="#1571F0" offset="0%"></stop>
            <stop stop-color="#3087FF" stop-opacity="0" offset="100%"></stop>
        </linearGradient>
        <linearGradient x1="-2.51086646e-16%" y1="71.8721198%" x2="100%" y2="71.8721198%" id="linearGradient-12">
            <stop stop-color="#1672F0" offset="0%"></stop>
            <stop stop-color="#1672F0" stop-opacity="0" offset="100%"></stop>
        </linearGradient>
    </defs>
    <g id="页面-1" stroke="none" stroke-width="1" fill="none" fill-rule="evenodd">
        <g id="官网1920" transform="translate(-355.000000, -2023.000000)">
            <g id="编组-50备份" transform="translate(340.000000, 1993.000000)">
                <g id="icon_user-owned" transform="translate(16.000000, 30.000000)">
                    <g id="编组-25" transform="translate(18.000000, 0.000000)">
                        <mask id="mask-2" fill="white">
                            <use xlink:href="#path-1"></use>
                        </mask>
                        <g id="矩形备份-185"></g>
                        <path d="M81.5,144 C91.8333333,155.333333 104.5,158.166667 119.5,152.5 C134.5,146.833333 150,116.666667 166,62 C138.133604,61.9498671 119.24238,61.0023224 109.326328,59.157366 M69.2358299,40.1500449 C56.4526212,28.4327674 51.5995857,15.2821595 48.5,6.5 C45.5,-2 16.5,2.5 11.5,38" id="形状" stroke="#202842" stroke-dasharray="1" mask="url(#mask-2)"></path>
                        <g id="编组-24" mask="url(#mask-2)">
                            <g transform="translate(67.000000, 28.000000)">
                                <path d="M22,44 C34.1502645,44 44,34.1502645 44,22 C44,9.8497355 34.1502645,0 22,0 C9.8497355,0 0,9.8497355 0,22 C0,34.1502645 9.8497355,44 22,44 Z" id="椭圆形" stroke="#202842" stroke-dasharray="1"></path>
                                <g id="编组-16备份-2" stroke="none" fill-rule="evenodd" transform="translate(22.250076, 22.004362) rotate(-1.000000) translate(-22.250076, -22.004362) translate(9.310042, 10.910050)" stroke-linejoin="round">
                                    <polygon id="矩形备份-31" stroke="#202842" fill="#FFFFFF" points="7.88281066 -5.29241232e-13 25.8800692 0.314143316 18.8287781 3.19151956 0.331595722 2.86865004"></polygon>
                                    <polygon id="矩形备份-32" stroke="#202842" fill="#202842" points="25.8800692 0.314143316 25.5659259 18.3114018 18.4971824 22.1886258 18.8287781 3.19151956"></polygon>
                                    <polygon id="矩形" stroke="#202842" points="0.331595722 2.86865004 18.8287781 3.19151956 18.4971824 22.1886258 -1.33477046e-14 21.8657562"></polygon>
                                </g>
                            </g>
                        </g>
                    </g>
                    <g id="编组-26" transform="translate(0.000000, 32.000000)">
                        <g id="路径" fill-rule="nonzero">
                            <use fill="url(#linearGradient-3)" xlink:href="#path-5"></use>
                            <use fill="url(#radialGradient-4)" xlink:href="#path-5"></use>
                        </g>
                        <polygon id="矩形备份-3" fill="url(#linearGradient-6)" fill-rule="nonzero" points="24.6126924 44 73 44.0146516 54.6357862 52 3 52"></polygon>
                        <path d="M25.9722222,0 C33.6959481,0 39.957265,6.2680135 39.957265,14 C39.957265,18.4694362 37.8651334,22.4497062 34.6077585,25.0129306 C46.141015,28.2881203 54.6082621,39.1300436 54.6082621,52 L54.6082621,52 L3.14797543,52 C3.03415537,51.9999774 2.92042894,51.9934515 2.80735597,51.9804319 C1.1735732,51.792313 0.00163109784,50.3153698 0.18975003,48.6815871 L0.18975003,48.6815871 L0.240735478,48.2655335 C1.60840514,37.7422169 8.67569901,29.0668231 18.1552168,25.6105346 C14.4339858,23.0948246 11.9871795,18.833459 11.9871795,14 C11.9871795,6.2680135 18.2484964,0 25.9722222,0 Z" id="形状结合" fill="#1672F0" fill-rule="nonzero"></path>
                        <path d="M26,0 C33.7319865,0 40,6.2680135 40,14 C40,18.4445804 37.9288608,22.4054203 34.6990674,24.9700349 C46.3950741,28.1905669 55,39.0721186 55,52 L55,52 L0,52 C0,39.8540992 7.59542139,29.5144588 18.2139374,25.6365388 C14.4666333,23.1247063 12,18.8504097 12,14 C12,6.2680135 18.2680135,0 26,0 Z" id="形状结合" stroke="#FFFFFF" stroke-linejoin="round"></path>
                    </g>
                    <g id="编组-14" transform="translate(60.000000, 90.000000)">
                        <mask id="mask-9" fill="white">
                            <use xlink:href="#path-8"></use>
                        </mask>
                        <use id="路径-2" fill="url(#linearGradient-7)" xlink:href="#path-8"></use>
                        <rect id="矩形" fill="#1672F0" fill-rule="nonzero" mask="url(#mask-9)" x="3.34906882" y="9.22868296" width="44.12877" height="45"></rect>
                        <rect id="矩形" fill="#60A4FF" fill-rule="nonzero" filter="url(#filter-10)" mask="url(#mask-9)" x="9.99677195" y="17.4926942" width="29.3770524" height="29.9570407" rx="7.85202864"></rect>
                        <polygon id="矩形备份-3" fill="url(#linearGradient-11)" fill-rule="nonzero" mask="url(#mask-9)" points="26.239335 0.706421383 65.6159359 0.721073018 47.4778388 9.22868296 1.89275749 9.22868296"></polygon>
                        <polygon id="矩形备份-4" fill="url(#linearGradient-12)" fill-rule="nonzero" mask="url(#mask-9)" points="65.6159359 0.721073018 65.6082689 42.0264775 47.4778388 55.7137461 47.4778388 9.22868296"></polygon>
                    </g>
                    <path d="M37,10 L41,10 L41,17 C41,18.1045695 40.1045695,19 39,19 C37.8954305,19 37,18.1045695 37,17 L37,10 L37,10 Z" id="矩形" fill="#202842" transform="translate(39.000000, 14.500000) rotate(40.000000) translate(-39.000000, -14.500000) "></path>
                    <path d="M145,141 L149,141 L149,148 C149,149.104569 148.104569,150 147,150 C145.895431,150 145,149.104569 145,148 L145,141 L145,141 Z" id="矩形备份-33" fill="#202842" transform="translate(147.000000, 145.500000) rotate(-134.000000) translate(-147.000000, -145.500000) "></path>
                    <g id="编组-24备份" transform="translate(7.000000, 97.000000)" stroke="#202842">
                        <path d="M22,44 C34.1502645,44 44,34.1502645 44,22 C44,9.8497355 34.1502645,0 22,0 C9.8497355,0 0,9.8497355 0,22 C0,34.1502645 9.8497355,44 22,44 Z" id="椭圆形" stroke-dasharray="1"></path>
                        <g id="编组-16备份-3" transform="translate(22.250076, 22.004362) rotate(-1.000000) translate(-22.250076, -22.004362) translate(9.310042, 10.910050)" stroke-linejoin="round">
                            <polygon id="矩形备份-31" fill="#FFFFFF" points="7.88281066 -7.51098422e-13 25.8800692 0.314143316 18.8287781 3.19151956 0.331595722 2.86865004"></polygon>
                            <polygon id="矩形备份-32" fill="#202842" points="25.8800692 0.314143316 25.5659259 18.3114018 18.4971824 22.1886258 18.8287781 3.19151956"></polygon>
                            <polygon id="矩形" points="0.331595722 2.86865004 18.8287781 3.19151956 18.4971824 22.1886258 -9.32364388e-16 21.8657562"></polygon>
                        </g>
                    </g>
                </g>
            </g>
        </g>
    </g>
</svg>