<?xml version="1.0" encoding="UTF-8"?>
<svg width="155px" height="24px" viewBox="0 0 155 24" version="1.1" xmlns="http://www.w3.org/2000/svg" xmlns:xlink="http://www.w3.org/1999/xlink">
    <title>logo_Dmaster</title>
    <defs>
        <linearGradient x1="49.988188%" y1="100.011264%" x2="49.988188%" y2="0%" id="linearGradient-1">
            <stop stop-color="#1672F0" offset="50%"></stop>
            <stop stop-color="#1672F0" stop-opacity="0" offset="100%"></stop>
        </linearGradient>
    </defs>
    <g id="页面-1" stroke="none" stroke-width="1" fill="none" fill-rule="evenodd">
        <g id="官网1440" transform="translate(-80.000000, -28.000000)" fill-rule="nonzero">
            <g id="logo_Dmaster" transform="translate(80.000000, 28.000000)">
                <g id="编组-3">
                    <rect id="矩形" fill="#1672F0" x="0.0012498085" y="18.6568754" width="5.29043937" height="5.33682082"></rect>
                    <rect id="矩形" fill="url(#linearGradient-1)" transform="translate(2.645220, 11.354521) rotate(180.000000) translate(-2.645220, -11.354521) " x="0" y="5.75798242" width="5.29043937" height="11.1930771"></rect>
                    <path d="M19.1583145,3.50625504 C16.9318338,1.2519593 13.9041248,-0.0105076749 10.7496029,0 L10.7496029,0 L0.0012498085,0 L0.0012498085,5.95592262 L10.7496029,5.95592262 L10.7496029,5.95592262 C12.9105877,5.92443589 14.9209119,7.06938066 16.0105152,8.95218275 C17.1001185,10.8349848 17.1001185,13.1638203 16.0105152,15.0466224 C14.9209119,16.9294245 12.9105877,18.0743692 10.7496029,18.0428825 L7.19639733,18.0428825 L7.19639733,24 L10.7483531,24 C15.5603882,24.0002631 19.8986156,21.075983 21.7396416,16.591074 C23.5806676,12.106165 22.5618258,6.94411582 19.1583145,3.51255887 L19.1583145,3.50625504 Z" id="路径" fill="#1672F0"></path>
                </g>
                <path d="M71.2553318,1.57350136 C74.713552,1.57350136 77.0831889,3.22006125 78.3654924,5.02295607 L78.3654924,1.92651574 L83.8446528,1.92651574 L83.8446528,23.6406818 L78.3654924,23.6406818 L78.3654924,20.4648132 C77.0831889,22.3471363 74.6360638,23.9949569 71.2165878,23.9949569 C65.7774212,23.9949569 61.425588,19.4864591 61.425588,12.7060617 C61.425588,5.92566424 65.7774212,1.57350136 71.2553318,1.57350136 Z M95.7290818,1.5722406 C100.935784,1.5722406 104.084052,4.43417853 104.394004,8.74599691 L99.1873019,8.74599691 C99.0323257,7.06035329 97.7112781,5.92566424 95.5741056,5.92566424 C93.5531652,5.92566424 92.5045759,6.74894419 92.5045759,8.00340597 C92.5045759,11.9609492 104.432748,9.49237015 104.587724,17.4490619 C104.587724,21.170842 101.363219,23.9936962 96.1190221,23.9936962 C90.7173498,23.9936962 86.9491771,20.8178276 86.715463,16.7808561 L92.1946234,16.7808561 C92.3883437,18.427416 93.9031116,19.680617 96.0790282,19.680617 C98.2162007,19.680617 99.3822721,18.7010021 99.3822721,17.4465404 C99.3822721,13.5659038 87.2203856,16.0344829 87.2203856,8.0790519 C87.2203856,4.47326226 90.4073973,1.5722406 95.7290818,1.5722406 Z M129.671381,1.57350136 C135.887928,1.57350136 140.279756,5.84623601 140.279756,12.3127028 C140.285597,13.0214486 140.233343,13.7294684 140.123529,14.4295283 L124.38844,14.4295283 C124.659649,17.6432198 126.835566,19.4461146 129.555149,19.4461146 C131.886042,19.4461146 133.168345,18.2710811 133.866988,16.8212006 L139.734839,16.8212006 C138.568768,20.8178276 134.994315,23.9936962 129.671381,23.9936962 C123.422339,23.9936962 118.869286,19.6037103 118.869286,12.7842292 C118.869286,5.92440348 123.299857,1.57350136 129.671381,1.57350136 Z M112.813964,1.75631238 L112.813964,4.52999672 L117.630726,4.52999672 L115.053621,9.03723376 L112.812714,9.03723376 L112.812714,16.9409734 C112.812714,18.3921146 113.396375,19.0199758 115.104863,19.0199758 L117.255783,19.0199758 L120.204082,23.6444641 L114.205001,23.6444641 C110.086882,23.6444641 107.331054,21.8793922 107.331054,16.9031504 L107.336053,1.75631238 L112.813964,1.75631238 Z M50.5347568,1.6125851 C55.0940582,1.6125851 58.3160645,4.90570487 58.3160645,10.9031669 L58.3160645,23.6368995 L53.51555,23.6368995 L53.51555,11.6470186 C53.51555,8.19756387 51.8358074,6.39466905 49.299946,6.39466905 C46.7290899,6.39466905 45.0505971,8.19756387 45.0505971,11.6470186 L45.0505971,23.6406818 L40.2513325,23.6406818 L40.2513325,11.6470186 C40.2513325,8.19756387 38.5715898,6.39466905 36.0344786,6.39466905 C33.4298777,6.39466905 31.7501351,8.19756387 31.7501351,11.6470186 L31.7501351,23.6406818 L26.9508704,23.6406818 L26.9508704,1.92651574 L31.7501351,1.92651574 L31.7501351,4.5526905 C32.9499512,2.74979568 34.9721414,1.6125851 37.3380289,1.6125851 C40.2863271,1.6125851 42.7197042,3.06372631 44.0220047,5.77311161 C45.2555657,3.30327178 47.7589321,1.6125851 50.5347568,1.6125851 Z M155,1.61132433 L155,7.37302316 L153.56147,7.37302316 C150.338214,7.37302316 148.394762,8.62748494 148.394762,12.8207914 L148.394762,23.6406818 L142.954346,23.6406818 L142.954346,1.92651574 L148.394762,1.92651574 L148.394762,5.29528144 C149.754554,3.06246555 152.007958,1.61132433 155,1.61132433 Z M72.6551174,6.39466905 C69.7405639,6.39466905 66.9822366,8.58966197 66.9822366,12.7048009 C66.9822366,16.8199399 69.7405639,19.1712677 72.6551174,19.1712677 C75.6459091,19.1712677 78.3654924,16.9018896 78.3654924,12.7842292 C78.3654924,8.66656868 75.6459091,6.39466905 72.6551174,6.39466905 Z M129.517655,6.08073841 C126.911804,6.08073841 124.853369,7.7676428 124.425935,10.7455712 L134.641869,10.7455712 C134.563131,7.88363323 132.309727,6.08073841 129.517655,6.08073841 Z" id="形状结合" fill="#1672F0"></path>
            </g>
        </g>
    </g>
</svg>