<?xml version="1.0" encoding="UTF-8"?>
<svg width="582px" height="203px" viewBox="0 0 582 203" version="1.1" xmlns="http://www.w3.org/2000/svg" xmlns:xlink="http://www.w3.org/1999/xlink">
    <title>web2</title>
    <g id="页面-1" stroke="none" stroke-width="1" fill="none" fill-rule="evenodd">
        <g id="官网1920" transform="translate(-339.000000, -1481.000000)">
            <g id="编组-52" transform="translate(340.000000, 1026.000000)">
                <g id="web2" transform="translate(0.000000, 455.000000)">
                    <g id="编组-41">
                        <line x1="15" y1="84" x2="15" y2="41" id="路径-3" stroke="#1D9BF0" stroke-linejoin="round"></line>
                        <circle id="椭圆形" fill="#1D9BF0" fill-rule="nonzero" cx="15" cy="63" r="5"></circle>
                        <text id="Controlled-by-Twitte" font-family="Poppins-Regular, Poppins" font-size="12" font-weight="normal" fill="#6987A5">
                            <tspan x="28" y="67">Controlled by Twitter</tspan>
                        </text>
                        <rect id="矩形" stroke="#1D9BF0" fill-opacity="0.4" fill="#FFFFFF" stroke-linejoin="round" x="0" y="84" width="280" height="118" rx="8"></rect>
                        <rect id="矩形" fill="#202842" x="0" y="0" width="280" height="40" rx="6"></rect>
                        <text id="Twitter" font-family="Poppins-SemiBold, Poppins" font-size="17" font-weight="500" fill="#FFFFFF">
                            <tspan x="128" y="26">Twitter</tspan>
                        </text>
                        <g id="Twitter-logo" transform="translate(92.000000, 8.000000)" fill="#1D9BF0" fill-rule="nonzero">
                            <path d="M26.928702,5.97473779 C26.9469835,6.23512135 26.9469835,6.49550492 26.9469835,6.75828833 C26.9469835,14.7653829 20.7556368,24 9.43449116,24 L9.43449116,23.9952003 C6.09018891,24 2.81535649,23.0568595 0,21.2785718 C0.486288848,21.3361681 0.975015235,21.3649663 1.46496039,21.3661663 C4.23644119,21.3685661 6.92870201,20.4530239 9.10907983,18.7671303 C6.47531993,18.7179334 4.16575259,17.0272401 3.35892748,14.5589959 C4.28153565,14.7341849 5.2321755,14.6981871 6.1377209,14.4546025 C3.26630104,13.8834386 1.20048751,11.3995954 1.20048751,8.51497744 L1.20048751,8.43818229 C2.05606338,8.90735268 3.01401584,9.16773624 3.99390615,9.19653442 C1.28945765,7.41704675 0.455819622,3.87487034 2.08897014,1.10544515 C5.21389397,4.89120618 9.82449726,7.19266091 14.7739183,7.43624554 C14.2778793,5.33157839 14.9555149,3.1261176 16.5545399,1.64661099 C19.0335161,-0.647644193 22.9323583,-0.530051615 25.2626447,1.9093944 C26.6410725,1.64181129 27.9622182,1.14384273 29.1712371,0.438287261 C28.7117611,1.84099872 27.7501523,3.03252351 26.4655698,3.78967571 C27.6855576,3.64808465 28.8775137,3.32650495 30,2.83573593 C29.1736746,4.05485898 28.1328458,5.11679194 26.928702,5.97473779 Z" id="路径"></path>
                        </g>
                        <g id="编组-42" transform="translate(12.000000, 94.000000)">
                            <rect id="矩形备份-36" fill="#1D9BF0" opacity="0.100000001" x="0" y="0" width="78" height="28" rx="3"></rect>
                            <circle id="椭圆形备份-28" stroke="#1D9BF0" fill="#FFFFFF" opacity="0.5" cx="12" cy="14" r="7.5"></circle>
                        </g>
                        <g id="编组-42备份-3" transform="translate(12.000000, 128.000000)">
                            <rect id="矩形备份-36" fill="#1D9BF0" opacity="0.100000001" x="0" y="0" width="78" height="28" rx="3"></rect>
                            <circle id="椭圆形备份-28" stroke="#1D9BF0" fill="#FFFFFF" opacity="0.5" cx="12" cy="14" r="7.5"></circle>
                        </g>
                        <g id="编组-42备份-6" transform="translate(12.000000, 162.000000)">
                            <rect id="矩形备份-36" fill="#1D9BF0" opacity="0.100000001" x="0" y="0" width="78" height="28" rx="3"></rect>
                            <text id="…" font-family="Poppins-Light, Poppins" font-size="11" font-weight="300" fill="#6987A5">
                                <tspan x="26" y="18">…</tspan>
                            </text>
                            <circle id="椭圆形备份-28" stroke="#1D9BF0" fill="#FFFFFF" opacity="0.5" cx="12" cy="14" r="7.5"></circle>
                        </g>
                        <g id="编组-42备份" transform="translate(100.000000, 94.000000)">
                            <rect id="矩形备份-36" fill="#1D9BF0" opacity="0.100000001" x="0" y="0" width="78" height="28" rx="3"></rect>
                            <circle id="椭圆形备份-28" stroke="#1D9BF0" fill="#FFFFFF" opacity="0.5" cx="12" cy="14" r="7.5"></circle>
                        </g>
                        <g id="编组-42备份-4" transform="translate(100.000000, 128.000000)">
                            <rect id="矩形备份-36" fill="#1D9BF0" opacity="0.100000001" x="0" y="0" width="78" height="28" rx="3"></rect>
                            <circle id="椭圆形备份-28" stroke="#1D9BF0" fill="#FFFFFF" opacity="0.5" cx="12" cy="14" r="7.5"></circle>
                        </g>
                        <text id="All-user‘s-IDs" font-family="Poppins-Light, Poppins" font-size="11" font-weight="300" fill="#6987A5">
                            <tspan x="126" y="180">All user‘s IDs</tspan>
                        </text>
                        <circle id="椭圆形备份-28" stroke="#1D9BF0" fill="#FFFFFF" opacity="0.5" cx="112" cy="176" r="7.5"></circle>
                        <g id="编组-42备份-2" transform="translate(190.000000, 94.000000)">
                            <rect id="矩形备份-36" fill="#1D9BF0" opacity="0.100000001" x="0" y="0" width="78" height="28" rx="3"></rect>
                            <circle id="椭圆形备份-28" stroke="#1D9BF0" fill="#FFFFFF" opacity="0.5" cx="12" cy="14" r="7.5"></circle>
                        </g>
                        <g id="编组-42备份-5" transform="translate(190.000000, 128.000000)">
                            <rect id="矩形备份-36" fill="#1D9BF0" opacity="0.100000001" x="0" y="0" width="78" height="28" rx="3"></rect>
                            <circle id="椭圆形备份-28" stroke="#1D9BF0" fill="#FFFFFF" opacity="0.5" cx="12" cy="14" r="7.5"></circle>
                        </g>
                    </g>
                    <g id="编组-31" transform="translate(300.000000, 0.000000)">
                        <line x1="15" y1="84" x2="15" y2="40" id="路径-3" stroke="#000000" stroke-linejoin="round"></line>
                        <g id="编组-22" transform="translate(10.000000, 57.000000)" fill-rule="nonzero">
                            <circle id="椭圆形" fill="#FF004F" cx="5" cy="7" r="5"></circle>
                            <circle id="椭圆形备份-27" fill="#00F2EA" cx="5" cy="5" r="5"></circle>
                            <circle id="椭圆形备份-26" fill="#000000" cx="5" cy="6" r="5"></circle>
                        </g>
                        <text id="Controlled-by-Tik-To" font-family="Poppins-Regular, Poppins" font-size="12" font-weight="normal" fill="#999EAF">
                            <tspan x="28" y="67">Controlled by Tik Tok</tspan>
                        </text>
                        <rect id="矩形" fill="#202842" x="0" y="0" width="280" height="40" rx="6"></rect>
                        <g id="TikTok_logo" transform="translate(99.000000, 8.000000)" fill-rule="nonzero">
                            <g id="编组-46">
                                <path d="M15.670364,8.66349097 C17.213112,9.77066374 19.103048,10.4221017 21.144274,10.4221017 L21.144274,6.47863271 C20.757972,6.47871508 20.372654,6.43827305 19.994716,6.35788318 L19.994716,9.46195346 C17.953654,9.46195346 16.063964,8.81051548 14.520806,7.70342508 L14.520806,15.7508957 C14.520806,19.776649 11.270162,23.0399341 7.260526,23.0399341 C5.764436,23.0399341 4.37388,22.5858467 3.218746,21.8070698 C4.537142,23.1604365 6.375746,24 8.409838,24 C12.41972,24 15.670528,20.7367149 15.670528,16.7107969 L15.670528,8.66349097 L15.670364,8.66349097 Z M17.088472,4.68501613 C16.300042,3.82024847 15.782376,2.70269751 15.670364,1.46719747 L15.670364,0.959983527 L14.580994,0.959983527 C14.855202,2.53030407 15.790494,3.87189237 17.088472,4.68501613 L17.088472,4.68501613 Z M5.754842,18.7178255 C5.314338,18.1379642 5.076292,17.4286224 5.077358,16.6992656 C5.077358,14.858041 6.564182,13.3651452 8.398522,13.3651452 C8.74038,13.3650628 9.080188,13.4176127 9.405974,13.5213947 L9.405974,9.4897934 C9.025248,9.4374082 8.640996,9.41516919 8.256908,9.4233235 L8.256908,12.5613288 C7.930876,12.4575468 7.590904,12.4048322 7.248964,12.4051616 C5.414624,12.4051616 3.927882,13.8978928 3.927882,15.7393644 C3.927882,17.0414167 4.671048,18.1686869 5.754842,18.7178255 Z" id="形状" fill="#FF004F"></path>
                                <path d="M14.520806,7.70334271 C16.063964,8.81043311 17.953654,9.4618711 19.994716,9.4618711 L19.994716,6.35780081 C18.855408,6.1141602 17.846808,5.51642529 17.088472,4.68501613 C15.790412,3.87181001 14.855202,2.5302217 14.580994,0.959983527 L11.719522,0.959983527 L11.719522,16.7106322 C11.713044,18.5468323 10.228762,20.0336331 8.398358,20.0336331 C7.31973,20.0336331 6.361478,19.5174411 5.754596,18.7178255 C4.670884,18.1686869 3.927718,17.0413343 3.927718,15.7394468 C3.927718,13.8981399 5.41446,12.405244 7.2488,12.405244 C7.600252,12.405244 7.938994,12.4601826 8.256744,12.5614112 L8.256744,9.42340586 C4.317546,9.5051136 1.149476,12.7365228 1.149476,16.7107145 C1.149476,18.6945981 1.938398,20.4930743 3.218828,21.8071522 C4.373962,22.5858467 5.764518,23.0400165 7.260608,23.0400165 C11.270326,23.0400165 14.520888,19.7765667 14.520888,15.7508957 L14.520888,7.70334271 L14.520806,7.70334271 Z" id="路径" fill="#FFFFFF"></path>
                                <path d="M19.994716,6.35780081 L19.994716,5.51848445 C18.967338,5.52004942 17.960132,5.23118951 17.088472,4.68493376 C17.860092,5.53306335 18.876154,6.1178667 19.994716,6.35780081 Z M14.580994,0.959983527 C14.554836,0.809911456 14.534746,0.658850985 14.520806,0.507213947 L14.520806,0 L10.569882,0 L10.569882,15.7508134 C10.563568,17.5867664 9.079368,19.0735672 7.2488,19.0735672 C6.711372,19.0735672 6.203956,18.945487 5.754596,18.7179079 C6.361478,19.5174411 7.31973,20.0335507 8.398358,20.0335507 C10.228598,20.0335507 11.713126,18.5469147 11.719522,16.7107145 L11.719522,0.959983527 L14.580994,0.959983527 Z M8.256908,9.42340586 L8.256908,8.52989224 C7.926776,8.48459057 7.593938,8.46185737 7.26069,8.46202121 C3.250644,8.46202121 0,11.7253895 0,15.7508134 C0,18.2745281 1.27756,20.4986753 3.21891,21.8069874 C1.93848,20.492992 1.149558,18.6944334 1.149558,16.7106322 C1.149558,12.7365228 4.317546,9.5051136 8.256908,9.42340586 Z" id="形状" fill="#00F2EA"></path>
                            </g>
                            <path d="M65.774332,19.7399135 C68.64343,19.7399135 70.96936,17.4224449 70.96936,14.563992 C70.96936,11.7056215 68.64343,9.38774109 65.774332,9.38774109 L64.991642,9.38774109 C67.860822,9.38774109 70.186752,11.7055392 70.186752,14.563992 C70.186752,17.4224449 67.860822,19.7399135 64.991642,19.7399135 L65.774332,19.7399135 Z" id="路径" fill="#FF004F"></path>
                            <path d="M64.920712,9.38774109 L64.138104,9.38774109 C61.269088,9.38774109 58.942748,11.7055392 58.942748,14.563992 C58.942748,17.4224449 61.269088,19.7399135 64.138104,19.7399135 L64.920712,19.7399135 C62.051286,19.7399135 59.725356,17.4224449 59.725356,14.563992 C59.725274,11.7056215 62.051286,9.38774109 64.920712,9.38774109 Z" id="路径" fill="#00F2EA"></path>
                            <path d="M25.425084,7.0482806 L25.425084,9.6719061 L28.484586,9.6719061 L28.484586,19.6690782 L31.545318,19.6690782 L31.545318,9.74274144 L34.035822,9.74274144 L34.88977,7.0482806 L25.425084,7.0482806 L25.425084,7.0482806 Z M50.474608,7.0482806 L50.474608,9.6719061 L53.53411,9.6719061 L53.53411,19.6690782 L56.594842,19.6690782 L56.594842,9.74274144 L59.085264,9.74274144 L59.93913,7.0482806 L50.474608,7.0482806 L50.474608,7.0482806 Z M35.459588,8.5371405 C35.459588,7.71503878 36.12756,7.0482806 36.952808,7.0482806 C37.778794,7.0482806 38.447504,7.71503878 38.447504,8.5371405 C38.447504,9.35932459 37.779204,10.0260828 36.952808,10.0260828 C36.12756,10.0256709 35.459588,9.35932459 35.459588,8.5371405 Z M35.459588,11.0899307 L38.447504,11.0899307 L38.447504,19.6690782 L35.459588,19.6690782 L35.459588,11.0899307 Z M39.728672,7.0482806 L39.728672,19.6689958 L42.717736,19.6689958 L42.717736,16.4077699 L43.642942,15.5561809 L46.560256,19.7398311 L49.762356,19.7398311 L45.563382,13.6422266 L49.335136,9.95483561 L45.70598,9.95483561 L42.717736,12.9326378 L42.717736,7.0482806 L39.728672,7.0482806 Z M71.965086,7.0482806 L71.965086,19.6689958 L74.95456,19.6689958 L74.95456,16.4077699 L75.879356,15.5561809 L78.79749,19.7398311 L82,19.7398311 L77.801026,13.6422266 L81.572616,9.95483561 L77.943624,9.95483561 L74.95456,12.9326378 L74.95456,7.0482806 L71.965086,7.0482806 Z" id="形状" fill="#FFFFFF"></path>
                            <path d="M64.991396,19.7399135 C67.860412,19.7399135 70.186752,17.4224449 70.186752,14.563992 C70.186752,11.7056215 67.860412,9.38774109 64.991396,9.38774109 L64.920466,9.38774109 C62.051286,9.38774109 59.725356,11.7055392 59.725356,14.563992 C59.725356,17.4224449 62.051286,19.7399135 64.920466,19.7399135 L64.991396,19.7399135 Z M62.429552,14.563992 C62.429552,13.1735603 63.561152,12.0472785 64.956546,12.0472785 C66.350956,12.0472785 67.482474,13.1735603 67.482474,14.563992 C67.482474,15.9544238 66.350956,17.0813645 64.956546,17.0813645 C63.561152,17.0811174 62.429552,15.9544238 62.429552,14.563992 Z" id="形状" fill="#FFFFFF"></path>
                        </g>
                        <rect id="矩形" stroke="#000000" fill-opacity="0.4" fill="#FFFFFF" stroke-linejoin="round" x="0" y="84" width="280" height="118" rx="8"></rect>
                        <text id="All-user‘s-IDs" font-family="Poppins-Light, Poppins" font-size="11" font-weight="300" fill="#999EAF">
                            <tspan x="126" y="182">All user‘s IDs</tspan>
                        </text>
                        <circle id="椭圆形备份-28" stroke="#202842" fill="#FFFFFF" opacity="0.495884487" cx="112" cy="178" r="8"></circle>
                        <g id="编组-42备份-6" transform="translate(12.000000, 164.000000)">
                            <rect id="矩形备份-36" fill="#202842" opacity="0.102436744" x="0" y="0" width="78" height="28" rx="3"></rect>
                            <text id="…" font-family="Poppins-Light, Poppins" font-size="11" font-weight="300" fill="#C4C6CE">
                                <tspan x="26" y="18">…</tspan>
                            </text>
                            <circle id="椭圆形备份-28" stroke="#202842" fill="#FFFFFF" opacity="0.495884487" cx="12" cy="14" r="8"></circle>
                        </g>
                        <g id="编组-42" transform="translate(12.000000, 94.000000)">
                            <rect id="矩形备份-36" fill="#202842" opacity="0.102436744" x="0" y="0" width="78" height="28" rx="3"></rect>
                            <circle id="椭圆形备份-28" stroke="#202842" fill="#FFFFFF" opacity="0.495884487" cx="12" cy="14" r="8"></circle>
                        </g>
                        <g id="编组-42备份-3" transform="translate(12.000000, 129.000000)">
                            <rect id="矩形备份-36" fill="#202842" opacity="0.102436744" x="0" y="0" width="78" height="28" rx="3"></rect>
                            <circle id="椭圆形备份-28" stroke="#202842" fill="#FFFFFF" opacity="0.495884487" cx="12" cy="14" r="8"></circle>
                        </g>
                        <g id="编组-42备份" transform="translate(100.000000, 94.000000)">
                            <rect id="矩形备份-36" fill="#202842" opacity="0.102436744" x="0" y="0" width="78" height="28" rx="3"></rect>
                            <circle id="椭圆形备份-28" stroke="#202842" fill="#FFFFFF" opacity="0.495884487" cx="12" cy="14" r="8"></circle>
                        </g>
                        <g id="编组-42备份-4" transform="translate(100.000000, 129.000000)">
                            <rect id="矩形备份-36" fill="#202842" opacity="0.102436744" x="0" y="0" width="78" height="28" rx="3"></rect>
                            <circle id="椭圆形备份-28" stroke="#202842" fill="#FFFFFF" opacity="0.495884487" cx="12" cy="14" r="8"></circle>
                        </g>
                        <g id="编组-42备份-2" transform="translate(188.000000, 94.000000)">
                            <rect id="矩形备份-36" fill="#202842" opacity="0.102436744" x="0" y="0" width="78" height="28" rx="3"></rect>
                            <circle id="椭圆形备份-28" stroke="#202842" fill="#FFFFFF" opacity="0.495884487" cx="12" cy="14" r="8"></circle>
                        </g>
                        <g id="编组-42备份-5" transform="translate(188.000000, 129.000000)">
                            <rect id="矩形备份-36" fill="#202842" opacity="0.102436744" x="0" y="0" width="78" height="28" rx="3"></rect>
                            <circle id="椭圆形备份-28" stroke="#202842" fill="#FFFFFF" opacity="0.495884487" cx="12" cy="14" r="8"></circle>
                        </g>
                    </g>
                </g>
            </g>
        </g>
    </g>
</svg>