<?xml version="1.0" encoding="UTF-8"?>
<svg width="580px" height="202px" viewBox="0 0 580 202" version="1.1" xmlns="http://www.w3.org/2000/svg" xmlns:xlink="http://www.w3.org/1999/xlink">
    <title>web3</title>
    <defs>
        <linearGradient x1="49.988188%" y1="50.0056319%" x2="49.988188%" y2="0%" id="linearGradient-1">
            <stop stop-color="#FFFFFF" offset="0%"></stop>
            <stop stop-color="#FFFFFF" stop-opacity="0" offset="100%"></stop>
        </linearGradient>
    </defs>
    <g id="页面-1" stroke="none" stroke-width="1" fill="none" fill-rule="evenodd">
        <g id="官网1920" transform="translate(-1000.000000, -1481.000000)">
            <g id="编组-52" transform="translate(340.000000, 1026.000000)">
                <g id="web3" transform="translate(660.000000, 455.000000)">
                    <rect id="矩形备份-181" fill="#FFFFFF" x="533" y="6.5" width="47" height="47" rx="10"></rect>
                    <rect id="矩形备份-184" fill="#FFFFFF" x="0" y="6.5" width="47" height="47" rx="10"></rect>
                    <rect id="矩形备份-182" fill="#FFFFFF" x="533" y="77.5" width="47" height="47" rx="10"></rect>
                    <rect id="矩形备份-186" fill="#FFFFFF" x="0" y="77.5" width="47" height="47" rx="10"></rect>
                    <rect id="矩形备份-183" fill="#FFFFFF" x="533" y="148.5" width="47" height="47" rx="10"></rect>
                    <rect id="矩形备份-187" fill="#FFFFFF" x="0" y="148.5" width="47" height="47" rx="10"></rect>
                    <g id="编组-45" transform="translate(47.000000, 29.500000)">
                        <g id="编组-45备份" transform="translate(51.500000, 143.000000) scale(-1, 1) translate(-51.500000, -143.000000) translate(0.000000, 142.500000)">
                            <path id="路径-11备份" d="M84,-4 C86.3162476,-4 88.2237653,-2.25001939 88.4725262,-8.51613636e-05 L89,0 L89,1 L88.4724574,1.00070744 C88.2234136,3.25034205 86.3160341,5 84,5 C81.5147186,5 79.5,2.98528137 79.5,0.5 C79.5,-1.98528137 81.5147186,-4 84,-4 Z M91,0 L91,1 L90,1 L90,0 L91,0 Z M93,0 L93,1 L92,1 L92,0 L93,0 Z M95,0 L95,1 L94,1 L94,0 L95,0 Z M97,0 L97,1 L96,1 L96,0 L97,0 Z M99,0 L99,1 L98,1 L98,0 L99,0 Z M101,0 L101,1 L100,1 L100,0 L101,0 Z M103,0 L103,1 L102,1 L102,0 L103,0 Z" fill="#1672F0" fill-rule="nonzero"></path>
                            <line x1="38" y1="0.5" x2="1.80661042e-13" y2="0.5" id="路径-25" stroke="#1672F0" opacity="0.600000024" stroke-linejoin="round" stroke-dasharray="1"></line>
                        </g>
                        <path id="路径-11" d="M0,67 C2.31637876,67 4.22398135,68.7501788 4.47256844,71.000297 L5,71 L5,72 L4.47245735,72.0007074 C4.2234136,74.2503421 2.31603406,76 0,76 C-2.48528137,76 -4.5,73.9852814 -4.5,71.5 C-4.5,69.0147186 -2.48528137,67 0,67 Z M7,71 L7,72 L6,72 L6,71 L7,71 Z M9,71 L9,72 L8,72 L8,71 L9,71 Z M11,71 L11,72 L10,72 L10,71 L11,71 Z M13,71 L13,72 L12,72 L12,71 L13,71 Z M15,71 L15,72 L14,72 L14,71 L15,71 Z M17,71 L17,72 L16,72 L16,71 L17,71 Z M19,71 L19,72 L18,72 L18,71 L19,71 Z" fill="#1672F0" fill-rule="nonzero"></path>
                        <path d="M97.5,81.5 L103,76.5 L97.5,71.5" id="路径-21" stroke="#1672F0" opacity="0.600000024" stroke-linejoin="round" stroke-dasharray="1"></path>
                        <path d="M97.5,115.5 L103,110.5 L97.5,105.5" id="路径-21备份" stroke="#1672F0" opacity="0.600000024" stroke-linejoin="round" stroke-dasharray="1"></path>
                        <path d="M97.5,148 L103,143 L97.5,138" id="路径-21备份-2" stroke="#1672F0" opacity="0.600000024" stroke-linejoin="round" stroke-dasharray="1"></path>
                        <path id="路径-22" d="M0,-4 C2.3162476,-4 4.22376533,-2.25001939 4.4725262,-8.51613636e-05 L5,0 L5,1 L4.47245735,1.00070744 C4.2234136,3.25034205 2.31603406,5 0,5 C-2.48528137,5 -4.5,2.98528137 -4.5,0.5 C-4.5,-1.98528137 -2.48528137,-4 0,-4 Z M7,0 L7,1 L6,1 L6,0 L7,0 Z M9,0 L9,1 L8,1 L8,0 L9,0 Z M11,0 L11,1 L10,1 L10,0 L11,0 Z M13,0 L13,1 L12,1 L12,0 L13,0 Z M15,0 L15,1 L14,1 L14,0 L15,0 Z M17,0 L17,1 L16,1 L16,0 L17,0 Z M19,0 L19,1 L18,1 L18,0 L19,0 Z" fill="#1672F0" fill-rule="nonzero"></path>
                        <path d="M65,0.5 L87,0.5 L87,76.5 L103,76.5" id="路径-23" stroke="#1672F0" opacity="0.600000024" stroke-linejoin="round" stroke-dasharray="1"></path>
                        <path d="M65,71.5 L77,71.5 L77,110.5 L103,110.5" id="路径-24" stroke="#1672F0" opacity="0.600000024" stroke-linejoin="round" stroke-dasharray="1"></path>
                    </g>
                    <g id="编组-45备份-2" transform="translate(481.527933, 103.500000) scale(-1, 1) translate(-481.527933, -103.500000) translate(430.000000, 29.500000)">
                        <g id="编组-45备份" transform="translate(51.277933, 143.000000) scale(-1, 1) translate(-51.277933, -143.000000) translate(0.000000, 142.500000)">
                            <path id="路径-11备份" d="M83.5558659,-4 C85.8721135,-4 87.7796313,-2.25001939 88.0283921,-8.51613636e-05 L88.5558659,0 L88.5558659,1 L88.0283233,1.00070744 C87.7792795,3.25034205 85.8719,5 83.5558659,5 C81.0705845,5 79.0558659,2.98528137 79.0558659,0.5 C79.0558659,-1.98528137 81.0705845,-4 83.5558659,-4 Z M90.5558659,0 L90.5558659,1 L89.5558659,1 L89.5558659,0 L90.5558659,0 Z M92.5558659,0 L92.5558659,1 L91.5558659,1 L91.5558659,0 L92.5558659,0 Z M94.5558659,0 L94.5558659,1 L93.5558659,1 L93.5558659,0 L94.5558659,0 Z M96.5558659,0 L96.5558659,1 L95.5558659,1 L95.5558659,0 L96.5558659,0 Z M98.5558659,0 L98.5558659,1 L97.5558659,1 L97.5558659,0 L98.5558659,0 Z M100.555866,0 L100.555866,1 L99.5558659,1 L99.5558659,0 L100.555866,0 Z M102.555866,0 L102.555866,1 L101.555866,1 L101.555866,0 L102.555866,0 Z" fill="#1672F0" fill-rule="nonzero"></path>
                            <line x1="37.8184358" y1="0.5" x2="-1.26785139e-13" y2="0.5" id="路径-25" stroke="#1672F0" opacity="0.600000024" stroke-linejoin="round" stroke-dasharray="1"></line>
                        </g>
                        <path id="路径-11" d="M0,67 C2.31637876,67 4.22398135,68.7501788 4.47256844,71.000297 L5,71 L5,72 L4.47245735,72.0007074 C4.2234136,74.2503421 2.31603406,76 0,76 C-2.48528137,76 -4.5,73.9852814 -4.5,71.5 C-4.5,69.0147186 -2.48528137,67 0,67 Z M7,71 L7,72 L6,72 L6,71 L7,71 Z M9,71 L9,72 L8,72 L8,71 L9,71 Z M11,71 L11,72 L10,72 L10,71 L11,71 Z M13,71 L13,72 L12,72 L12,71 L13,71 Z M15,71 L15,72 L14,72 L14,71 L15,71 Z M17,71 L17,72 L16,72 L16,71 L17,71 Z M19,71 L19,72 L18,72 L18,71 L19,71 Z" fill="#1672F0" fill-rule="nonzero"></path>
                        <path d="M97.5865922,81.5 L103.055866,76.5 L97.5865922,71.5" id="路径-21" stroke="#1672F0" opacity="0.600000024" stroke-linejoin="round" stroke-dasharray="1"></path>
                        <path d="M97.5865922,115.5 L103.055866,110.5 L97.5865922,105.5" id="路径-21备份" stroke="#1672F0" opacity="0.600000024" stroke-linejoin="round" stroke-dasharray="1"></path>
                        <path d="M97.5865922,148 L103.055866,143 L97.5865922,138" id="路径-21备份-2" stroke="#1672F0" opacity="0.600000024" stroke-linejoin="round" stroke-dasharray="1"></path>
                        <path id="路径-22" d="M0,-4 C2.3162476,-4 4.22376533,-2.25001939 4.4725262,-8.51613636e-05 L5,0 L5,1 L4.47245735,1.00070744 C4.2234136,3.25034205 2.31603406,5 0,5 C-2.48528137,5 -4.5,2.98528137 -4.5,0.5 C-4.5,-1.98528137 -2.48528137,-4 0,-4 Z M7,0 L7,1 L6,1 L6,0 L7,0 Z M9,0 L9,1 L8,1 L8,0 L9,0 Z M11,0 L11,1 L10,1 L10,0 L11,0 Z M13,0 L13,1 L12,1 L12,0 L13,0 Z M15,0 L15,1 L14,1 L14,0 L15,0 Z M17,0 L17,1 L16,1 L16,0 L17,0 Z M19,0 L19,1 L18,1 L18,0 L19,0 Z" fill="#1672F0" fill-rule="nonzero"></path>
                        <path d="M64.650838,0.5 L86.5558659,0.5 L86.6424581,76.5 L102.555866,76.5" id="路径-23" stroke="#1672F0" opacity="0.600000024" stroke-linejoin="round" stroke-dasharray="1"></path>
                        <path d="M64.7374302,71.5 L76.698324,71.5 L76.698324,110.5 L102.555866,110.5" id="路径-24" stroke="#1672F0" opacity="0.600000024" stroke-linejoin="round" stroke-dasharray="1"></path>
                    </g>
                    <g id="编组-47" transform="translate(65.000000, 161.000000)">
                        <rect id="矩形备份-188" stroke="#1672F0" fill-opacity="0.5" fill="#FFFFFF" x="0.5" y="0.5" width="46" height="21" rx="10.5"></rect>
                        <text id="READ" font-family="Poppins-Light, Poppins" font-size="11" font-weight="300" fill="#1672F0">
                            <tspan x="10" y="15">READ</tspan>
                        </text>
                    </g>
                    <g id="编组-47备份-2" transform="translate(65.000000, 90.000000)">
                        <rect id="矩形备份-188" stroke="#1672F0" fill-opacity="0.5" fill="#FFFFFF" x="0.5" y="0.5" width="46" height="21" rx="10.5"></rect>
                        <text id="READ" font-family="Poppins-Light, Poppins" font-size="11" font-weight="300" fill="#1672F0">
                            <tspan x="10" y="15">READ</tspan>
                        </text>
                    </g>
                    <g id="编组-47备份-4" transform="translate(65.000000, 19.000000)">
                        <rect id="矩形备份-188" stroke="#1672F0" fill-opacity="0.5" fill="#FFFFFF" x="0.5" y="0.5" width="46" height="21" rx="10.5"></rect>
                        <text id="READ" font-family="Poppins-Light, Poppins" font-size="11" font-weight="300" fill="#1672F0">
                            <tspan x="10" y="15">READ</tspan>
                        </text>
                    </g>
                    <g id="编组-47备份" transform="translate(468.000000, 161.000000)">
                        <rect id="矩形备份-188" stroke="#1672F0" fill-opacity="0.5" fill="#FFFFFF" x="0.5" y="0.5" width="46" height="21" rx="10.5"></rect>
                        <text id="READ" font-family="Poppins-Light, Poppins" font-size="11" font-weight="300" fill="#1672F0">
                            <tspan x="10" y="15">READ</tspan>
                        </text>
                    </g>
                    <g id="编组-47备份-3" transform="translate(468.000000, 90.000000)">
                        <rect id="矩形备份-188" stroke="#1672F0" fill-opacity="0.5" fill="#FFFFFF" x="0.5" y="0.5" width="46" height="21" rx="10.5"></rect>
                        <text id="READ" font-family="Poppins-Light, Poppins" font-size="11" font-weight="300" fill="#1672F0">
                            <tspan x="10" y="15">READ</tspan>
                        </text>
                    </g>
                    <g id="编组-47备份-5" transform="translate(468.000000, 19.000000)">
                        <rect id="矩形备份-188" stroke="#1672F0" fill-opacity="0.5" fill="#FFFFFF" x="0.5" y="0.5" width="46" height="21" rx="10.5"></rect>
                        <text id="READ" font-family="Poppins-Light, Poppins" font-size="11" font-weight="300" fill="#1672F0">
                            <tspan x="10" y="15">READ</tspan>
                        </text>
                    </g>
                    <g id="编组-43" transform="translate(150.000000, 50.000000)">
                        <rect id="矩形备份-22" stroke="#1672F0" fill-opacity="0.4" fill="#FFFFFF" x="0.5" y="0.5" width="279" height="151" rx="10"></rect>
                        <rect id="矩形" fill="#1672F0" opacity="0.300000012" x="16" y="42" width="103" height="28" rx="6"></rect>
                        <rect id="矩形备份-38" fill="#1672F0" opacity="0.300000012" x="170" y="42" width="94" height="28" rx="6"></rect>
                        <rect id="矩形备份-30" fill="#1672F0" opacity="0.100000001" x="16" y="110" width="148" height="28" rx="6"></rect>
                        <rect id="矩形备份-6" fill="#1672F0" opacity="0.5" x="125" y="42" width="39" height="28" rx="6"></rect>
                        <rect id="矩形备份-8" fill="#1672F0" opacity="0.5" x="16" y="76" width="39" height="28" rx="6"></rect>
                        <rect id="矩形备份-35" fill="#1672F0" opacity="0.5" x="194" y="76" width="70" height="28" rx="6"></rect>
                        <rect id="矩形备份-21" fill="#1672F0" opacity="0.200000003" x="125" y="76" width="63" height="28" rx="6"></rect>
                        <rect id="矩形备份-17" fill="#1672F0" opacity="0.100000001" x="61" y="76" width="58" height="28" rx="6"></rect>
                        <rect id="矩形备份-37" fill="#1672F0" opacity="0.100000001" x="170" y="110" width="94" height="28" rx="6"></rect>
                        <text id="Your-DID-&amp;-your-data" font-family="Poppins-Light, Poppins" font-size="11" font-weight="300" fill="#1672F0">
                            <tspan x="46" y="25">Your DID &amp; your data</tspan>
                        </text>
                        <circle id="椭圆形备份-28" fill="#1672F0" cx="28" cy="21" r="12"></circle>
                    </g>
                    <g id="编组-44" transform="translate(150.000000, 0.000000)">
                        <rect id="矩形" fill="#1672F0" x="0" y="0" width="280" height="40" rx="6"></rect>
                        <g id="logo_Dmaster备份" transform="translate(89.000000, 12.000000)" fill-rule="nonzero">
                            <g id="编组-3">
                                <rect id="矩形" fill="#FFFFFF" x="0.000830517905" y="12.4379169" width="3.51558229" height="3.55788055"></rect>
                                <rect id="矩形" fill="url(#linearGradient-1)" transform="translate(1.757791, 7.569681) rotate(180.000000) translate(-1.757791, -7.569681) " x="0" y="3.83865495" width="3.51558229" height="7.46205138"></rect>
                                <path d="M12.731009,2.33750336 C11.2514767,0.834639532 9.23951516,-0.0070051166 7.1432845,0 L7.1432845,0 L0.000830517905,0 L0.000830517905,3.97061508 L7.1432845,3.97061508 L7.1432845,3.97061508 C8.57929379,3.94962393 9.9151866,4.71292044 10.6392456,5.96812183 C11.3633046,7.22332322 11.3633046,8.77588019 10.6392456,10.0310816 C9.9151866,11.286283 8.57929379,12.0495795 7.1432845,12.0285883 L4.78212209,12.0285883 L4.78212209,16 L7.14245398,16 C10.340129,16.0001754 13.222951,14.0506554 14.4463425,11.060716 C15.6697339,8.0707767 14.9926971,4.62941054 12.731009,2.34170591 L12.731009,2.33750336 Z" id="路径" fill="#FFFFFF"></path>
                            </g>
                            <path d="M47.3503173,1.04900091 C49.6483603,1.04900091 51.2230223,2.1467075 52.0751336,3.34863738 L52.0751336,1.28434382 L55.7161241,1.28434382 L55.7161241,15.7604545 L52.0751336,15.7604545 L52.0751336,13.6432088 C51.2230223,14.8980909 49.5968682,15.996638 47.3245712,15.996638 C43.7101573,15.996638 40.818294,12.9909727 40.818294,8.47070779 C40.818294,3.95044283 43.7101573,1.04900091 47.3503173,1.04900091 Z M63.6135189,1.0481604 C67.0734565,1.0481604 69.1655311,2.95611902 69.3714995,5.83066461 L65.9115619,5.83066461 C65.8085777,4.70690219 64.9307203,3.95044283 63.5105347,3.95044283 C62.1675872,3.95044283 61.4707827,4.49929612 61.4707827,5.33560398 C61.4707827,7.97396614 69.3972456,6.32824677 69.5002298,11.6327079 C69.5002298,14.1138947 67.3574936,15.9957974 63.8726405,15.9957974 C60.2831421,15.9957974 57.7791306,13.8785517 57.6238238,11.1872374 L61.2648143,11.1872374 C61.3935445,12.284944 62.4001322,13.1204114 63.8460639,13.1204114 C65.2662495,13.1204114 66.0411227,12.4673348 66.0411227,11.6310269 C66.0411227,9.04393589 57.959353,10.6896553 57.959353,5.3860346 C57.959353,2.98217484 60.0771737,1.0481604 63.6135189,1.0481604 Z M86.1687241,1.04900091 C90.2997202,1.04900091 93.2181601,3.89749067 93.2181601,8.20846854 C93.2220417,8.68096572 93.1873185,9.15297894 93.1143454,9.61968551 L82.658125,9.61968551 C82.8383474,11.7621465 84.284279,12.9640764 86.091486,12.9640764 C87.6404019,12.9640764 88.4925132,12.1807207 88.9567728,11.2141338 L92.8560543,11.2141338 C92.0811811,13.8785517 89.7058999,15.9957974 86.1687241,15.9957974 C82.0161346,15.9957974 78.9905579,13.0691402 78.9905579,8.52281943 C78.9905579,3.94960232 81.9347439,1.04900091 86.1687241,1.04900091 Z M74.9666987,1.17087492 L74.9666987,3.01999781 L78.1675147,3.01999781 L76.4549867,6.02482251 L74.9658681,6.02482251 L74.9658681,11.2939822 C74.9658681,12.2614097 75.35372,12.6799839 76.489038,12.6799839 L77.9183593,12.6799839 L79.877551,15.7629761 L75.8910651,15.7629761 C73.1545086,15.7629761 71.3232166,14.5862615 71.3232166,11.2687669 L71.3265387,1.17087492 L74.9666987,1.17087492 Z M33.581161,1.07505673 C36.6108903,1.07505673 38.7519654,3.27046991 38.7519654,7.26877791 L38.7519654,15.757933 L35.5619462,15.757933 L35.5619462,7.76467905 C35.5619462,5.46504258 34.4457301,4.2631127 32.7606093,4.2631127 C31.0522339,4.2631127 29.9368484,5.46504258 29.9368484,7.76467905 L29.9368484,15.7604545 L26.7476596,15.7604545 L26.7476596,7.76467905 C26.7476596,5.46504258 25.6314436,4.2631127 23.9454922,4.2631127 C22.2146929,4.2631127 21.0984768,5.46504258 21.0984768,7.76467905 L21.0984768,15.7604545 L17.9092881,15.7604545 L17.9092881,1.28434382 L21.0984768,1.28434382 L21.0984768,3.035127 C21.895774,1.83319712 23.239552,1.07505673 24.8117224,1.07505673 C26.7709141,1.07505673 28.3879325,2.04248421 29.2533322,3.84874107 C30.0730533,2.20218119 31.7365807,1.07505673 33.581161,1.07505673 Z M103,1.07421622 L103,4.91534877 L102.044074,4.91534877 C99.9021682,4.91534877 98.6107129,5.75165663 98.6107129,8.54719424 L98.6107129,15.7604545 L94.9954684,15.7604545 L94.9954684,1.28434382 L98.6107129,1.28434382 L98.6107129,3.53018763 C99.5143164,2.0416437 101.01174,1.07421622 103,1.07421622 Z M48.2804973,4.2631127 C46.3437296,4.2631127 44.5107766,5.72644132 44.5107766,8.46986728 C44.5107766,11.2132932 46.3437296,12.7808451 48.2804973,12.7808451 C50.2679267,12.7808451 52.0751336,11.2679264 52.0751336,8.52281943 C52.0751336,5.77771245 50.2679267,4.2631127 48.2804973,4.2631127 Z M86.0665704,4.05382561 C84.3349406,4.05382561 82.9670776,5.17842853 82.6830405,7.16371411 L89.4716939,7.16371411 C89.4193712,5.25575549 87.9219474,4.05382561 86.0665704,4.05382561 Z" id="形状结合" fill="#FFFFFF"></path>
                        </g>
                    </g>
                </g>
            </g>
        </g>
    </g>
</svg>