<?xml version="1.0" encoding="UTF-8"?>
<svg width="676px" height="142px" viewBox="0 0 676 142" version="1.1" xmlns="http://www.w3.org/2000/svg" xmlns:xlink="http://www.w3.org/1999/xlink">
    <title>打字机背景</title>
    <defs>
        <linearGradient x1="103.311769%" y1="50%" x2="0%" y2="50%" id="linearGradient-1">
            <stop stop-color="#1672F0" stop-opacity="0" offset="0%"></stop>
            <stop stop-color="#1672F0" offset="100%"></stop>
        </linearGradient>
        <filter x="-4.9%" y="-36.6%" width="109.7%" height="173.2%" filterUnits="objectBoundingBox" id="filter-2">
            <feGaussianBlur stdDeviation="10" in="SourceGraphic"></feGaussianBlur>
        </filter>
        <linearGradient x1="49.988188%" y1="50.0056319%" x2="49.988188%" y2="0%" id="linearGradient-3">
            <stop stop-color="#FFFFFF" offset="0%"></stop>
            <stop stop-color="#FFFFFF" stop-opacity="0" offset="100%"></stop>
        </linearGradient>
    </defs>
    <g id="页面-1" stroke="none" stroke-width="1" fill="none" fill-rule="evenodd">
        <g id="官网1440" transform="translate(-50.000000, -380.000000)">
            <g id="打字机背景" transform="translate(80.000000, 410.000000)">
                <path d="M4,0 L575,0 C597.643675,-4.15957557e-15 616,18.3563253 616,41 C616,63.6436747 597.643675,82 575,82 L4,82 C1.790861,82 2.04689834e-15,80.209139 0,78 L0,4 C-2.705415e-16,1.790861 1.790861,-3.82769592e-17 4,0 Z" id="矩形备份-25" fill="url(#linearGradient-1)" style="mix-blend-mode: multiply;" opacity="0.95" filter="url(#filter-2)"></path>
                <g id="编组-3" transform="translate(20.000000, 20.000000)" fill-rule="nonzero">
                    <rect id="矩形" fill="#FFFFFF" x="0" y="29" width="8" height="9"></rect>
                    <rect id="矩形" fill="url(#linearGradient-3)" transform="translate(4.000000, 18.000000) rotate(180.000000) translate(-4.000000, -18.000000) " x="0" y="9" width="8" height="18"></rect>
                    <path d="M30.4566871,5.55157048 C26.9169369,1.98226889 22.1033608,-0.0166371519 17.0881726,0 L17.0881726,0 L0,0 L0,9.43021081 L17.0881726,9.43021081 L17.0881726,9.43021081 C20.5237949,9.38035682 23.7198907,11.1931861 25.4521868,14.1742894 C27.1844828,17.1553927 27.1844828,20.8427154 25.4521868,23.8238188 C23.7198907,26.8049221 20.5237949,28.6177513 17.0881726,28.5678973 L11.4391406,28.5678973 L11.4391406,38 L17.0861856,38 C24.7365565,38.0004165 31.6336482,33.3703065 34.5605869,26.2692006 C37.4875255,19.1680947 35.867729,10.99485 30.4566871,5.56155154 L30.4566871,5.55157048 Z" id="路径" fill="#FFFFFF"></path>
                </g>
            </g>
        </g>
    </g>
</svg>