<?xml version="1.0" encoding="UTF-8"?>
<svg width="40px" height="40px" viewBox="0 0 40 40" version="1.1" xmlns="http://www.w3.org/2000/svg" xmlns:xlink="http://www.w3.org/1999/xlink">
    <title>邮箱</title>
    <g id="页面-1" stroke="none" stroke-width="1" fill="none" fill-rule="evenodd">
        <g id="官网1920" transform="translate(-1319.000000, -5562.000000)">
            <g id="编组-2备份" transform="translate(259.000000, 5306.000000)">
                <g id="编组-9" transform="translate(730.000000, 80.000000)">
                    <g id="编组-34" transform="translate(330.000000, 133.000000)">
                        <g id="邮箱" transform="translate(0.000000, 43.000000)">
                            <path d="M20,0 C8.92307691,0 0,8.92307691 0,20 C0,31.0769231 8.92307691,40 20,40 C31.0769231,40 40,31.0769231 40,20 C40,8.92307691 31.0769231,0 20,0 Z" id="路径" fill-opacity="0.1" fill="#202842"></path>
                            <g transform="translate(10.000000, 10.000000)" fill-rule="nonzero">
                                <rect id="矩形" fill="#000000" opacity="0" x="0" y="0" width="20" height="20"></rect>
                                <path d="M2.99290496,3.18576996 L16.9531328,3.18576996 C17.9064655,3.18576996 18.6859198,3.93724393 18.6979114,4.86259619 L9.97801537,9.59928051 L1.25612072,4.86659338 C1.26411512,3.93924254 2.03757369,3.18576996 2.99290496,3.18576996 L2.99290496,3.18576996 Z M1.25612072,6.67932447 L1.24812633,15.0594584 C1.24812633,15.992805 2.0335765,16.7562706 2.99290498,16.7562706 L16.9531328,16.7562706 C17.9124613,16.7562706 18.6979115,15.992805 18.6979115,15.0594584 L18.6979115,6.67532727 L10.1818727,11.1921655 C10.0519636,11.2621165 9.89407416,11.2621165 9.7641651,11.1921655 L1.25612072,6.67932447 L1.25612072,6.67932447 Z" id="形状" fill="#222840" opacity="0.5"></path>
                            </g>
                        </g>
                    </g>
                </g>
            </g>
        </g>
    </g>
</svg>